<svg width="271" height="100" viewBox="0 0 271 100" fill="none" xmlns="http://www.w3.org/2000/svg">
<rect x="0.333344" width="270" height="100" rx="23.8889" fill="white"/>
<path fill-rule="evenodd" clip-rule="evenodd" d="M150.606 69.3269C143.395 74.6591 132.905 77.5 123.858 77.5C111.183 77.5 99.8194 72.8234 91.1655 65.0437C90.5099 64.4318 91.0781 63.6014 91.9085 64.0822C101.218 69.5018 112.713 72.736 124.601 72.736C132.599 72.736 141.428 71.0752 149.557 67.6224C150.781 67.1416 151.786 68.4528 150.606 69.3269Z" fill="#FF9900"/>
<path fill-rule="evenodd" clip-rule="evenodd" d="M153.622 65.8741C152.704 64.6941 147.503 65.306 145.186 65.6119C144.487 65.6993 144.356 65.0874 145.012 64.6504C149.164 61.722 155.938 62.5962 156.725 63.5577C157.512 64.5192 156.506 71.3374 152.617 74.5717C152.005 75.0525 151.436 74.7902 151.699 74.1346C152.573 71.9493 154.54 67.0979 153.622 65.8741Z" fill="#FF9900"/>
<path fill-rule="evenodd" clip-rule="evenodd" d="M145.318 44.1084V41.2675C145.318 40.8304 145.624 40.5682 146.017 40.5682H158.692C159.085 40.5682 159.435 40.8741 159.435 41.2675V43.6713C159.435 44.0647 159.085 44.5892 158.473 45.4633L151.917 54.8164C154.365 54.7727 156.943 55.1224 159.129 56.3461C159.61 56.6084 159.741 57.0455 159.784 57.4388V60.4545C159.784 60.8916 159.347 61.3724 158.867 61.1101C154.977 59.0559 149.776 58.8374 145.492 61.1538C145.055 61.3724 144.575 60.9353 144.575 60.4982V57.6136C144.575 57.1766 144.575 56.3899 145.055 55.6906L152.66 44.8077H146.061C145.667 44.8077 145.318 44.5017 145.318 44.1084ZM99.1201 61.722H95.2739C94.9242 61.6783 94.6183 61.4161 94.5746 61.0664V41.3112C94.5746 40.9178 94.9243 40.6119 95.3176 40.6119H98.9015C99.2949 40.6119 99.5571 40.9178 99.6008 41.2675V43.8461H99.6882C100.606 41.3549 102.398 40.1748 104.758 40.1748C107.162 40.1748 108.692 41.3549 109.741 43.8461C110.659 41.3549 112.8 40.1748 115.073 40.1748C116.69 40.1748 118.438 40.8304 119.531 42.3601C120.755 44.021 120.492 46.4248 120.492 48.5664V61.0664C120.492 61.4598 120.143 61.7657 119.749 61.7657L115.947 61.7657C115.554 61.722 115.248 61.4161 115.248 61.0664V50.5769C115.248 49.7465 115.335 47.6486 115.16 46.8619C114.854 45.5507 114.024 45.1573 112.888 45.1573C111.97 45.1573 110.964 45.7692 110.571 46.7745C110.178 47.7797 110.221 49.4406 110.221 50.5769V61.0664C110.221 61.4598 109.872 61.7657 109.478 61.7657H105.632C105.239 61.722 104.933 61.4161 104.933 61.0664V50.5769C104.933 48.3916 105.283 45.1136 102.573 45.1136C99.8194 45.1136 99.9068 48.2605 99.9068 50.5769V61.0664C99.8631 61.4161 99.5571 61.722 99.1201 61.722ZM170.361 40.1748C176.087 40.1748 179.19 45.0699 179.19 51.3199C179.19 57.3514 175.781 62.1591 170.361 62.1591C164.767 62.1591 161.707 57.264 161.707 51.1451C161.664 44.9825 164.767 40.1748 170.361 40.1748ZM170.361 44.2395C167.52 44.2395 167.346 48.1294 167.346 50.5332C167.346 52.9371 167.302 58.0944 170.318 58.0944C173.29 58.0944 173.464 53.9423 173.464 51.4073C173.464 49.7465 173.377 47.736 172.896 46.1626C172.459 44.764 171.585 44.2395 170.361 44.2395ZM186.576 61.722H182.73C182.337 61.6783 182.031 61.3724 182.031 61.0227V41.2238C182.075 40.8741 182.381 40.5682 182.774 40.5682H186.358C186.707 40.5682 186.97 40.8304 187.057 41.1364V44.1521H187.145C188.237 41.4423 189.723 40.1748 192.389 40.1748C194.094 40.1748 195.798 40.7867 196.891 42.4913C197.896 44.0647 197.896 46.7308 197.896 48.6538V61.1101C197.853 61.4598 197.547 61.722 197.153 61.722H193.307C192.957 61.6783 192.652 61.4161 192.608 61.1101V50.3584C192.608 48.1731 192.87 45.0262 190.204 45.0262C189.286 45.0262 188.412 45.6381 187.975 46.5997C187.45 47.8234 187.363 49.0035 187.363 50.3584V61.0227C187.319 61.4161 186.97 61.722 186.576 61.722ZM135.221 52.2815C135.221 53.7675 135.265 55.035 134.522 56.3899C133.91 57.4825 132.949 58.1381 131.856 58.1381C130.37 58.1381 129.496 57.0017 129.496 55.3409C129.496 52.0629 132.424 51.451 135.221 51.451V52.2815ZM139.111 61.6783C138.849 61.8969 138.499 61.9406 138.193 61.7657C136.926 60.7168 136.664 60.1923 135.964 59.1871C133.867 61.3287 132.337 61.9843 129.627 61.9843C126.393 61.9843 123.858 59.9738 123.858 55.9965C123.858 52.8497 125.562 50.7517 127.966 49.7028C130.064 48.785 132.992 48.6101 135.221 48.3479V47.8671C135.221 46.9493 135.309 45.8566 134.741 45.0699C134.26 44.3706 133.386 44.0647 132.599 44.0647C131.113 44.0647 129.802 44.8077 129.496 46.3811C129.409 46.7308 129.19 47.0804 128.84 47.0804L125.125 46.6871C124.819 46.5996 124.47 46.3811 124.557 45.9003C125.431 41.3549 129.496 40 133.167 40C135.047 40 137.494 40.4808 138.98 41.9231C140.86 43.6713 140.685 46.0315 140.685 48.5664V54.5542C140.685 56.3461 141.428 57.1329 142.127 58.1381C142.389 58.4878 142.433 58.9248 142.127 59.1433C141.297 59.7989 139.898 61.0227 139.111 61.6783ZM84.7407 52.2815C84.7407 53.7675 84.7844 55.035 84.0414 56.3899C83.4295 57.4825 82.468 58.1381 81.3753 58.1381C79.8893 58.1381 79.0152 57.0017 79.0152 55.3409C79.0152 52.0629 81.9435 51.451 84.7407 51.451V52.2815ZM88.5868 61.6783C88.3246 61.8969 87.975 61.9406 87.669 61.7657C86.4015 60.7168 86.1393 60.1923 85.44 59.1871C83.3421 61.3287 81.8124 61.9843 79.1026 61.9843C75.8683 61.9843 73.3333 59.9738 73.3333 55.9965C73.3333 52.8497 75.0379 50.7517 77.4417 49.7028C79.5396 48.785 82.468 48.6101 84.697 48.3479V47.8671C84.697 46.9493 84.7844 45.8566 84.2162 45.0699C83.7354 44.3706 82.8613 44.0647 82.0746 44.0647C80.5886 44.0647 79.2774 44.8077 78.9715 46.3811C78.884 46.7308 78.6655 47.0804 78.3159 47.0804L74.6008 46.6871C74.2949 46.5996 73.9452 46.3811 74.0326 45.9003C74.9068 41.3549 78.9715 40 82.6428 40C84.5222 40 86.9697 40.4808 88.4557 41.9231C90.3351 43.6713 90.1603 46.0315 90.1603 48.5664V54.5542C90.1603 56.3461 90.9033 57.1329 91.6026 58.1381C91.8648 58.4878 91.9085 58.9248 91.6026 59.1433C90.7722 59.7989 89.3735 61.0227 88.5868 61.6783Z" fill="black"/>
</svg>
