<svg width="270" height="100" viewBox="0 0 270 100" fill="none" xmlns="http://www.w3.org/2000/svg">
<rect width="270" height="100" rx="23.8889" fill="white"/>
<rect width="112.5" height="37.5" transform="translate(79 31)" fill="white"/>
<path d="M105.263 50.8167C105.246 47.7441 106.632 45.4251 109.436 43.7172C107.867 41.4651 105.497 40.226 102.367 39.9832C99.4047 39.7488 96.1666 41.7162 94.9816 41.7162C93.7297 41.7162 90.8589 40.0669 88.6056 40.0669C83.9489 40.1423 79 43.7925 79 51.2185C79 53.412 79.4006 55.678 80.2017 58.0166C81.27 61.0892 85.1256 68.624 89.1481 68.4985C91.2511 68.4482 92.7366 66.9999 95.4739 66.9999C98.1278 66.9999 99.5048 68.4985 101.85 68.4985C105.906 68.4398 109.394 61.5915 110.412 58.5106C104.971 55.9404 105.263 50.9757 105.263 50.8167V50.8167ZM100.54 37.0697C102.818 34.3572 102.609 31.8874 102.543 31C100.531 31.1172 98.2029 32.373 96.876 33.9218C95.4155 35.5795 94.5559 37.6307 94.7395 39.9414C96.9177 40.1088 98.9039 38.9869 100.54 37.0697V37.0697Z" fill="black"/>
<path d="M123.202 55.6339L121.015 62.2888H118.205L125.361 41.1395H128.641L135.824 62.2888H132.918L130.668 55.6339H123.202ZM130.107 53.4979L128.048 47.4102C127.579 46.0289 127.269 44.7757 126.955 43.5499H126.896C126.582 44.8031 126.24 46.0883 125.835 47.3782L123.776 53.4933L130.107 53.4979ZM137.956 52.0572C137.956 50.1133 137.897 48.5399 137.828 47.0991H140.297L140.425 49.7062H140.484C141.609 47.8538 143.39 46.7561 145.859 46.7561C149.517 46.7561 152.264 49.8617 152.264 54.4767C152.264 59.9378 148.952 62.6318 145.39 62.6318C143.39 62.6318 141.641 61.7536 140.735 60.2489H140.675V68.5H137.956V52.0572ZM140.671 56.105C140.671 56.5166 140.73 56.8871 140.798 57.2347C141.299 59.1466 142.953 60.4684 144.925 60.4684C147.832 60.4684 149.522 58.0854 149.522 54.6002C149.522 51.554 147.927 48.9561 145.021 48.9561C143.149 48.9561 141.4 50.3054 140.862 52.3773C140.767 52.7204 140.675 53.132 140.675 53.5071L140.671 56.105ZM155.106 52.0572C155.106 50.1133 155.047 48.5399 154.979 47.0991H157.448L157.575 49.7062H157.634C158.76 47.8538 160.541 46.7561 163.01 46.7561C166.667 46.7561 169.414 49.8617 169.414 54.4767C169.414 59.9378 166.103 62.6318 162.54 62.6318C160.541 62.6318 158.792 61.7536 157.885 60.2489H157.826V68.5H155.106V52.0572ZM157.826 56.105C157.826 56.5166 157.885 56.8871 157.953 57.2347C158.454 59.1466 160.108 60.4684 162.08 60.4684C164.987 60.4684 166.677 58.0854 166.677 54.6002C166.677 51.554 165.082 48.9561 162.176 48.9561C160.304 48.9561 158.555 50.3054 158.017 52.3773C157.921 52.7204 157.83 53.132 157.83 53.5071L157.826 56.105ZM172.261 40.0097H175.013V62.2842H172.261V40.0097ZM180.543 55.1948C180.602 58.927 182.98 60.4684 185.726 60.4684C187.694 60.4684 188.883 60.1254 189.913 59.6863L190.382 61.6622C189.416 62.1012 187.758 62.6044 185.353 62.6044C180.698 62.6044 177.914 59.5308 177.914 54.9478C177.914 50.3648 180.602 46.7561 185.007 46.7561C189.945 46.7561 191.256 51.1149 191.256 53.9095C191.256 54.4767 191.197 54.9112 191.161 55.1948H180.543ZM188.605 53.2189C188.637 51.4626 187.886 48.732 184.793 48.732C182.009 48.732 180.793 51.3071 180.575 53.2189H188.605Z" fill="black"/>
</svg>
