<svg width="211" height="48" viewBox="0 0 211 48" fill="none" xmlns="http://www.w3.org/2000/svg">
<circle cx="24" cy="24" r="24" fill="#F5F5F5"/>
<path d="M33.3414 30.9369L34.4055 23.9991H27.7488V19.4969C27.7488 17.5989 28.6787 15.7488 31.6602 15.7488H34.6868V9.8423C34.6868 9.8423 31.94 9.37354 29.3141 9.37354C23.8316 9.37354 20.2484 12.6962 20.2484 18.7114V23.9991H14.1543V30.9369H20.2484V47.7085C21.4704 47.9002 22.7228 48 23.9986 48C25.2744 48 26.5269 47.9002 27.7488 47.7085V30.9369H33.3414Z" fill="#1877F2"/>
<path d="M75.576 35.256C74.9147 35.256 74.392 35.0747 74.008 34.712C73.6453 34.328 73.464 33.784 73.464 33.08V14.616C73.464 13.912 73.6453 13.3787 74.008 13.016C74.392 12.632 74.936 12.44 75.64 12.44H86.808C87.3627 12.44 87.7787 12.5787 88.056 12.856C88.3333 13.1333 88.472 13.528 88.472 14.04C88.472 14.5733 88.3333 14.9893 88.056 15.288C87.7787 15.5653 87.3627 15.704 86.808 15.704H77.56V22.072H86.136C86.6693 22.072 87.0747 22.2107 87.352 22.488C87.6507 22.7653 87.8 23.16 87.8 23.672C87.8 24.2053 87.6507 24.6213 87.352 24.92C87.0747 25.1973 86.6693 25.336 86.136 25.336H77.56V33.08C77.56 34.5307 76.8987 35.256 75.576 35.256ZM95.4158 35.32C94.2851 35.32 93.2718 35.1067 92.3758 34.68C91.5011 34.232 90.8078 33.6347 90.2958 32.888C89.8051 32.1413 89.5598 31.2987 89.5598 30.36C89.5598 29.208 89.8584 28.3013 90.4558 27.64C91.0531 26.9573 92.0238 26.4667 93.3678 26.168C94.7118 25.8693 96.5144 25.72 98.7758 25.72H100.376V28.024H98.8078C97.4851 28.024 96.4291 28.088 95.6398 28.216C94.8504 28.344 94.2851 28.568 93.9438 28.888C93.6238 29.1867 93.4638 29.6133 93.4638 30.168C93.4638 30.872 93.7091 31.448 94.1998 31.896C94.6904 32.344 95.3731 32.568 96.2478 32.568C96.9518 32.568 97.5704 32.408 98.1038 32.088C98.6584 31.7467 99.0958 31.288 99.4158 30.712C99.7358 30.136 99.8958 29.4747 99.8958 28.728V25.048C99.8958 23.9813 99.6611 23.2133 99.1918 22.744C98.7224 22.2747 97.9331 22.04 96.8238 22.04C96.2051 22.04 95.5331 22.1147 94.8078 22.264C94.1038 22.4133 93.3571 22.6693 92.5678 23.032C92.1624 23.224 91.7998 23.2773 91.4798 23.192C91.1811 23.1067 90.9464 22.936 90.7758 22.68C90.6051 22.4027 90.5198 22.104 90.5198 21.784C90.5198 21.464 90.6051 21.1547 90.7758 20.856C90.9464 20.536 91.2344 20.3013 91.6398 20.152C92.6211 19.7467 93.5598 19.4587 94.4558 19.288C95.3731 19.1173 96.2051 19.032 96.9518 19.032C98.4878 19.032 99.7464 19.2667 100.728 19.736C101.73 20.2053 102.477 20.92 102.968 21.88C103.458 22.8187 103.704 24.0347 103.704 25.528V33.208C103.704 33.8693 103.544 34.3813 103.224 34.744C102.904 35.0853 102.445 35.256 101.848 35.256C101.25 35.256 100.781 35.0853 100.44 34.744C100.12 34.3813 99.9598 33.8693 99.9598 33.208V31.672H100.216C100.066 32.4187 99.7678 33.0693 99.3198 33.624C98.8931 34.1573 98.3491 34.5733 97.6878 34.872C97.0264 35.1707 96.2691 35.32 95.4158 35.32ZM114.836 35.32C113.193 35.32 111.764 34.9893 110.548 34.328C109.332 33.6453 108.393 32.6853 107.732 31.448C107.07 30.2107 106.74 28.76 106.74 27.096C106.74 25.8373 106.921 24.7173 107.284 23.736C107.668 22.7333 108.212 21.8907 108.916 21.208C109.62 20.504 110.473 19.9707 111.476 19.608C112.478 19.224 113.598 19.032 114.836 19.032C115.54 19.032 116.297 19.128 117.108 19.32C117.94 19.512 118.718 19.832 119.444 20.28C119.785 20.4933 120.009 20.7493 120.116 21.048C120.222 21.3467 120.244 21.656 120.18 21.976C120.116 22.2747 119.977 22.5413 119.764 22.776C119.572 22.9893 119.326 23.128 119.028 23.192C118.729 23.2347 118.398 23.16 118.036 22.968C117.566 22.6907 117.086 22.488 116.596 22.36C116.105 22.2107 115.636 22.136 115.188 22.136C114.484 22.136 113.865 22.2533 113.332 22.488C112.798 22.7013 112.34 23.0213 111.956 23.448C111.593 23.8533 111.316 24.3653 111.124 24.984C110.932 25.6027 110.836 26.3173 110.836 27.128C110.836 28.7067 111.209 29.9547 111.956 30.872C112.724 31.768 113.801 32.216 115.188 32.216C115.636 32.216 116.094 32.152 116.564 32.024C117.054 31.896 117.545 31.6933 118.036 31.416C118.398 31.224 118.718 31.16 118.996 31.224C119.294 31.288 119.54 31.4373 119.732 31.672C119.924 31.8853 120.041 32.152 120.084 32.472C120.126 32.7707 120.084 33.0693 119.956 33.368C119.849 33.6667 119.636 33.912 119.316 34.104C118.612 34.5307 117.865 34.84 117.076 35.032C116.286 35.224 115.54 35.32 114.836 35.32ZM129.937 35.32C128.166 35.32 126.641 34.9893 125.361 34.328C124.081 33.6667 123.089 32.728 122.385 31.512C121.702 30.296 121.361 28.856 121.361 27.192C121.361 25.5707 121.692 24.152 122.353 22.936C123.036 21.72 123.964 20.7707 125.137 20.088C126.332 19.384 127.686 19.032 129.201 19.032C130.31 19.032 131.302 19.2133 132.177 19.576C133.073 19.9387 133.83 20.4613 134.449 21.144C135.089 21.8267 135.569 22.6587 135.889 23.64C136.23 24.6 136.401 25.688 136.401 26.904C136.401 27.288 136.262 27.5867 135.985 27.8C135.729 27.992 135.356 28.088 134.865 28.088H124.593V25.784H133.585L133.073 26.264C133.073 25.2827 132.924 24.4613 132.625 23.8C132.348 23.1387 131.932 22.6373 131.377 22.296C130.844 21.9333 130.172 21.752 129.361 21.752C128.465 21.752 127.697 21.9653 127.057 22.392C126.438 22.7973 125.958 23.384 125.617 24.152C125.297 24.8987 125.137 25.7947 125.137 26.84V27.064C125.137 28.8133 125.542 30.1253 126.353 31C127.185 31.8533 128.401 32.28 130.001 32.28C130.556 32.28 131.174 32.216 131.857 32.088C132.561 31.9387 133.222 31.6933 133.841 31.352C134.289 31.096 134.684 30.9893 135.025 31.032C135.366 31.0533 135.633 31.1707 135.825 31.384C136.038 31.5973 136.166 31.864 136.209 32.184C136.252 32.4827 136.188 32.792 136.017 33.112C135.868 33.432 135.601 33.7093 135.217 33.944C134.47 34.4133 133.606 34.7653 132.625 35C131.665 35.2133 130.769 35.32 129.937 35.32ZM148.433 35.32C147.11 35.32 145.947 34.9893 144.945 34.328C143.963 33.6667 143.313 32.7813 142.993 31.672L143.345 30.872V33.208C143.345 33.8693 143.174 34.3813 142.833 34.744C142.491 35.0853 142.011 35.256 141.393 35.256C140.753 35.256 140.262 35.0853 139.921 34.744C139.579 34.3813 139.409 33.8693 139.409 33.208V14.2C139.409 13.5387 139.579 13.0373 139.921 12.696C140.262 12.3547 140.753 12.184 141.393 12.184C142.033 12.184 142.523 12.3547 142.865 12.696C143.227 13.0373 143.409 13.5387 143.409 14.2V22.52H143.025C143.366 21.4747 144.027 20.632 145.009 19.992C145.99 19.352 147.131 19.032 148.433 19.032C149.819 19.032 151.025 19.3627 152.049 20.024C153.073 20.6853 153.873 21.624 154.449 22.84C155.025 24.0347 155.313 25.4747 155.313 27.16C155.313 28.824 155.025 30.2747 154.449 31.512C153.873 32.728 153.062 33.6667 152.017 34.328C150.993 34.9893 149.798 35.32 148.433 35.32ZM147.313 32.28C148.102 32.28 148.795 32.088 149.393 31.704C149.99 31.32 150.449 30.7547 150.769 30.008C151.11 29.24 151.281 28.2907 151.281 27.16C151.281 25.4533 150.918 24.184 150.193 23.352C149.467 22.4987 148.507 22.072 147.313 22.072C146.523 22.072 145.83 22.264 145.233 22.648C144.635 23.0107 144.166 23.576 143.825 24.344C143.505 25.0907 143.345 26.0293 143.345 27.16C143.345 28.8453 143.707 30.1253 144.433 31C145.158 31.8533 146.118 32.28 147.313 32.28ZM165.572 35.32C163.951 35.32 162.543 34.9893 161.348 34.328C160.154 33.6667 159.226 32.728 158.564 31.512C157.903 30.2747 157.572 28.824 157.572 27.16C157.572 25.9013 157.754 24.7813 158.116 23.8C158.5 22.7973 159.044 21.944 159.748 21.24C160.452 20.5147 161.295 19.9707 162.276 19.608C163.258 19.224 164.356 19.032 165.572 19.032C167.194 19.032 168.602 19.3627 169.796 20.024C170.991 20.6853 171.919 21.624 172.58 22.84C173.242 24.056 173.572 25.496 173.572 27.16C173.572 28.4187 173.38 29.5493 172.996 30.552C172.634 31.5547 172.1 32.4187 171.396 33.144C170.692 33.848 169.85 34.392 168.868 34.776C167.887 35.1387 166.788 35.32 165.572 35.32ZM165.572 32.28C166.362 32.28 167.055 32.088 167.652 31.704C168.25 31.32 168.708 30.7547 169.028 30.008C169.37 29.24 169.54 28.2907 169.54 27.16C169.54 25.4533 169.178 24.184 168.452 23.352C167.727 22.4987 166.767 22.072 165.572 22.072C164.783 22.072 164.09 22.264 163.492 22.648C162.895 23.0107 162.426 23.576 162.084 24.344C161.764 25.0907 161.604 26.0293 161.604 27.16C161.604 28.8453 161.967 30.1253 162.692 31C163.418 31.8533 164.378 32.28 165.572 32.28ZM183.85 35.32C182.228 35.32 180.82 34.9893 179.626 34.328C178.431 33.6667 177.503 32.728 176.842 31.512C176.18 30.2747 175.85 28.824 175.85 27.16C175.85 25.9013 176.031 24.7813 176.394 23.8C176.778 22.7973 177.322 21.944 178.026 21.24C178.73 20.5147 179.572 19.9707 180.554 19.608C181.535 19.224 182.634 19.032 183.85 19.032C185.471 19.032 186.879 19.3627 188.074 20.024C189.268 20.6853 190.196 21.624 190.858 22.84C191.519 24.056 191.85 25.496 191.85 27.16C191.85 28.4187 191.658 29.5493 191.274 30.552C190.911 31.5547 190.378 32.4187 189.674 33.144C188.97 33.848 188.127 34.392 187.146 34.776C186.164 35.1387 185.066 35.32 183.85 35.32ZM183.85 32.28C184.639 32.28 185.332 32.088 185.93 31.704C186.527 31.32 186.986 30.7547 187.306 30.008C187.647 29.24 187.818 28.2907 187.818 27.16C187.818 25.4533 187.455 24.184 186.73 23.352C186.004 22.4987 185.044 22.072 183.85 22.072C183.06 22.072 182.367 22.264 181.77 22.648C181.172 23.0107 180.703 23.576 180.362 24.344C180.042 25.0907 179.882 26.0293 179.882 27.16C179.882 28.8453 180.244 30.1253 180.97 31C181.695 31.8533 182.655 32.28 183.85 32.28ZM196.975 35.256C196.335 35.256 195.845 35.0853 195.503 34.744C195.162 34.3813 194.991 33.8693 194.991 33.208V14.2C194.991 13.5387 195.162 13.0373 195.503 12.696C195.845 12.3547 196.335 12.184 196.975 12.184C197.615 12.184 198.106 12.3547 198.447 12.696C198.81 13.0373 198.991 13.5387 198.991 14.2V26.008H199.055L204.335 20.44C204.762 20.0133 205.135 19.6827 205.455 19.448C205.775 19.2133 206.213 19.096 206.767 19.096C207.322 19.096 207.738 19.2453 208.015 19.544C208.314 19.8213 208.463 20.1627 208.463 20.568C208.463 20.9733 208.271 21.3787 207.887 21.784L202.319 27.672V26.008L208.431 32.6C208.815 33.0053 208.986 33.4213 208.943 33.848C208.922 34.2533 208.751 34.5947 208.431 34.872C208.111 35.128 207.706 35.256 207.215 35.256C206.618 35.256 206.138 35.1387 205.775 34.904C205.434 34.6693 205.05 34.3173 204.623 33.848L199.055 28.024H198.991V33.208C198.991 34.5733 198.319 35.256 196.975 35.256Z" fill="black"/>
</svg>
