<svg width="65" height="62" viewBox="0 0 65 62" fill="none" xmlns="http://www.w3.org/2000/svg">
<path d="M64.2975 31.6L34.395 38.515L43.4625 43.93C40.4625 48.3175 35.88 50.455 30.2925 50.455C19.7925 50.455 12.36 42.73 12.36 30.6325C12.335 28.0518 12.7146 25.4831 13.485 23.02C10.349 18.959 8.58887 14.0043 8.46 8.875C3.21 14.2675 0 21.82 0 30.625C0 48.5575 13.1325 61.1725 30.375 61.1725C39.075 61.1725 46.71 58.1725 52.08 52.615L57.3825 61.5025L64.2975 31.6Z" fill="#2753BD"/>
<path d="M30.2925 10.8175C35.715 10.8175 40.23 12.835 43.2075 16.915C43.6959 17.5818 44.3146 18.1425 45.0261 18.563C45.7376 18.9836 46.527 19.2553 47.3467 19.3617C48.1663 19.4681 48.999 19.407 49.7943 19.1821C50.5896 18.9571 51.3309 18.573 51.9734 18.0531C52.6158 17.5331 53.146 16.8881 53.5318 16.1572C53.9176 15.4262 54.1509 14.6246 54.2177 13.8008C54.2845 12.977 54.1833 12.1482 53.9202 11.3647C53.6572 10.5811 53.2378 9.85917 52.6875 9.24253C47.295 3.29502 39.4125 0.00251684 30.375 0.00251684C23.6721 -0.0832217 17.1249 2.02371 11.73 6.00252C11.5853 6.88264 11.5126 7.77309 11.5125 8.66502C11.5035 12.4818 12.8003 16.1869 15.1875 19.165C18.3 13.8475 23.73 10.8175 30.2925 10.8175Z" fill="#B0FB49"/>
</svg>
