<svg width="271" height="100" viewBox="0 0 271 100" fill="none" xmlns="http://www.w3.org/2000/svg">
<rect x="0.666687" width="270" height="100" rx="23.8889" fill="white"/>
<path d="M77.9137 30.0042H79.2794C84.0205 30.107 88.6844 32.009 92.0341 35.376C90.7973 36.6354 89.5347 37.8434 88.3236 39.1028C86.4426 37.4065 84.1751 36.0957 81.7015 35.633C78.0426 34.8619 74.1002 35.5559 71.0339 37.6378C67.6842 39.8225 65.4167 43.5237 64.9272 47.4818C64.3861 51.3886 65.494 55.501 68.045 58.5339C70.4928 61.4896 74.2291 63.3402 78.0941 63.4687C81.7015 63.6743 85.4635 62.5691 88.0917 60.0503C90.1531 58.2768 91.1065 55.5781 91.4157 52.9564C87.1383 52.9564 82.861 52.9821 78.5837 52.9564V47.6617H96.5948C97.5224 53.342 96.1826 59.7419 91.8537 63.8029C88.9678 66.6815 84.9739 68.3779 80.9027 68.712C76.9604 69.0975 72.8892 68.3522 69.3849 66.4502C65.1848 64.2141 61.8351 60.4358 60.186 55.9893C58.64 51.9026 58.6142 47.2762 60.0572 43.1638C61.3713 39.4113 63.8965 36.0957 67.1431 33.7824C70.2609 31.4949 74.0487 30.2355 77.9137 30.0042Z" fill="#3780FF"/>
<path d="M181.239 31.3409H186.754V68.044C184.924 68.044 183.069 68.0697 181.239 68.0183C181.265 55.8096 181.239 43.5753 181.239 31.3409V31.3409Z" fill="#38B137"/>
<path d="M108.86 44.0636C112.261 43.4211 115.946 44.1407 118.754 46.1712C121.305 47.9704 123.083 50.7977 123.624 53.8819C124.32 57.4546 123.444 61.3613 121.125 64.1886C118.626 67.35 114.529 69.0464 110.535 68.7893C106.876 68.5837 103.32 66.7588 101.156 63.7774C98.7077 60.4875 98.1151 55.9638 99.4549 52.1085C100.795 47.9704 104.583 44.809 108.86 44.0636M109.633 48.9471C108.241 49.3069 106.953 50.1037 106.026 51.2346C103.526 54.2161 103.681 59.0738 106.438 61.8497C108.01 63.4432 110.38 64.1886 112.57 63.7517C114.606 63.3918 116.384 62.0296 117.363 60.2304C119.064 57.1719 118.574 52.9567 115.972 50.5663C114.297 49.0242 111.849 48.3816 109.633 48.9471Z" fill="#FA3913"/>
<path d="M136.173 44.0636C140.064 43.3183 144.315 44.3978 147.227 47.1222C151.968 51.3631 152.483 59.3052 148.438 64.1886C145.99 67.2729 142.022 68.9692 138.105 68.7893C134.369 68.6865 130.685 66.836 128.469 63.7774C125.969 60.4104 125.428 55.7839 126.845 51.8515C128.262 47.8419 131.973 44.7833 136.173 44.0636M136.946 48.9471C135.555 49.3069 134.266 50.1037 133.339 51.2089C130.865 54.139 130.968 58.9196 133.622 61.7212C135.194 63.3918 137.642 64.2143 139.909 63.7517C141.919 63.3661 143.723 62.0296 144.702 60.2304C146.377 57.1461 145.887 52.931 143.259 50.5406C141.584 48.9985 139.136 48.3816 136.946 48.9471Z" fill="#FCBD06"/>
<path d="M159.337 45.5544C162.301 43.7038 166.243 43.1897 169.438 44.7833C170.443 45.2202 171.268 45.9656 172.066 46.711C172.092 46.017 172.066 45.2973 172.092 44.5777C173.819 44.6034 175.545 44.5777 177.297 44.6034V67.2729C177.271 70.6913 176.395 74.3154 173.922 76.8085C171.216 79.5586 167.068 80.4068 163.331 79.8414C159.337 79.2502 155.859 76.3458 154.313 72.6704C155.859 71.925 157.482 71.3339 159.08 70.6399C159.982 72.7475 161.811 74.5467 164.104 74.9579C166.398 75.3692 169.052 74.8037 170.546 72.9017C172.144 70.9483 172.144 68.2753 172.066 65.885C170.881 67.0416 169.515 68.0697 167.866 68.4552C164.285 69.4576 160.342 68.2239 157.585 65.8079C154.802 63.3918 153.153 59.665 153.308 55.9638C153.385 51.7743 155.756 47.7391 159.337 45.5544M164.671 48.8443C163.099 49.1013 161.631 49.9752 160.626 51.1832C158.204 54.0619 158.204 58.6626 160.652 61.4899C162.043 63.1605 164.285 64.0858 166.449 63.8545C168.485 63.6489 170.366 62.3637 171.371 60.5903C173.071 57.5831 172.788 53.4964 170.495 50.8748C169.077 49.2555 166.81 48.4587 164.671 48.8443V48.8443Z" fill="#3780FF"/>
<path d="M193.376 46.8652C196.468 43.9865 201.235 43.0098 205.203 44.5263C208.965 45.9399 211.361 49.5125 212.572 53.188C206.981 55.5012 201.415 57.7887 195.824 60.1019C196.597 61.567 197.782 62.9035 199.379 63.4432C201.621 64.24 204.301 63.9573 206.182 62.4665C206.929 61.9011 207.522 61.1557 208.089 60.4361C209.506 61.387 210.923 62.3123 212.34 63.2633C210.33 66.2705 206.955 68.3781 203.322 68.7122C199.302 69.2006 195.025 67.6584 192.422 64.5227C188.145 59.5879 188.557 51.3117 193.376 46.8652M196.133 51.6201C195.257 52.8796 194.896 54.4217 194.922 55.9381C198.658 54.396 202.394 52.8538 206.13 51.286C205.512 49.8467 204.018 48.9728 202.497 48.7415C200.049 48.3045 197.498 49.6153 196.133 51.6201V51.6201Z" fill="#FA3913"/>
</svg>
