<svg width="178" height="48" viewBox="0 0 178 48" fill="none" xmlns="http://www.w3.org/2000/svg">
<circle cx="24" cy="24" r="24" fill="#F5F5F5"/>
<path d="M39 24.36C39 23.3067 38.9076 22.3067 38.7493 21.3334H23.8365V27.3467H32.3751C31.9924 29.32 30.8706 30.9867 29.2078 32.12V36.12H34.3019C37.2844 33.3334 39 29.2267 39 24.36Z" fill="#4285F4"/>
<path d="M23.8366 40C28.1124 40 31.6888 38.56 34.3019 36.12L29.2078 32.12C27.7825 33.08 25.9745 33.6667 23.8366 33.6667C19.7059 33.6667 16.2086 30.8533 14.9549 27.0533H9.70245V31.1733C12.3023 36.4 17.6471 40 23.8366 40Z" fill="#34A853"/>
<path d="M14.9549 27.0533C14.6249 26.0933 14.4534 25.0667 14.4534 24C14.4534 22.9333 14.6381 21.9067 14.9549 20.9467V16.8267H9.70243C8.62026 18.9867 8 21.4133 8 24C8 26.5867 8.62026 29.0133 9.70243 31.1733L14.9549 27.0533Z" fill="#FBBC05"/>
<path d="M23.8366 14.3333C26.1724 14.3333 28.2576 15.1467 29.9072 16.7333L34.4206 12.1733C31.6888 9.58667 28.1124 8 23.8366 8C17.6471 8 12.3023 11.6 9.70245 16.8267L14.9549 20.9467C16.2086 17.1467 19.7059 14.3333 23.8366 14.3333Z" fill="#EA4335"/>
<path d="M84.312 35.32C81.816 35.32 79.704 34.8507 77.976 33.912C76.2693 32.9733 74.968 31.64 74.072 29.912C73.176 28.184 72.728 26.136 72.728 23.768C72.728 21.976 72.984 20.3653 73.496 18.936C74.0293 17.5067 74.7867 16.2907 75.768 15.288C76.7707 14.264 77.9867 13.4853 79.416 12.952C80.8453 12.3973 82.4667 12.12 84.28 12.12C85.4747 12.12 86.6693 12.2693 87.864 12.568C89.08 12.8453 90.2213 13.3253 91.288 14.008C91.6507 14.2427 91.8853 14.5307 91.992 14.872C92.12 15.2133 92.1413 15.5653 92.056 15.928C91.9707 16.2693 91.8107 16.568 91.576 16.824C91.3413 17.08 91.0427 17.24 90.68 17.304C90.3387 17.368 89.9547 17.2827 89.528 17.048C88.7173 16.5787 87.896 16.2373 87.064 16.024C86.232 15.8107 85.304 15.704 84.28 15.704C82.7013 15.704 81.368 16.024 80.28 16.664C79.192 17.2827 78.3707 18.1893 77.816 19.384C77.2827 20.5787 77.016 22.04 77.016 23.768C77.016 26.392 77.6453 28.3867 78.904 29.752C80.1627 31.1173 82.0293 31.8 84.504 31.8C85.3573 31.8 86.2213 31.7147 87.096 31.544C87.9707 31.3733 88.824 31.1387 89.656 30.84L88.856 32.664V25.848H85.336C84.8027 25.848 84.3867 25.7093 84.088 25.432C83.8107 25.1547 83.672 24.7813 83.672 24.312C83.672 23.8213 83.8107 23.448 84.088 23.192C84.3867 22.936 84.8027 22.808 85.336 22.808H90.616C91.1493 22.808 91.5547 22.9573 91.832 23.256C92.1307 23.5333 92.28 23.9387 92.28 24.472V32.248C92.28 32.7173 92.184 33.112 91.992 33.432C91.8213 33.752 91.5333 33.9867 91.128 34.136C90.1893 34.4773 89.112 34.7653 87.896 35C86.68 35.2133 85.4853 35.32 84.312 35.32ZM103.619 35.32C101.997 35.32 100.589 34.9893 99.3945 34.328C98.1998 33.6667 97.2718 32.728 96.6105 31.512C95.9492 30.2747 95.6185 28.824 95.6185 27.16C95.6185 25.9013 95.7998 24.7813 96.1625 23.8C96.5465 22.7973 97.0905 21.944 97.7945 21.24C98.4985 20.5147 99.3412 19.9707 100.323 19.608C101.304 19.224 102.403 19.032 103.619 19.032C105.24 19.032 106.648 19.3627 107.843 20.024C109.037 20.6853 109.965 21.624 110.627 22.84C111.288 24.056 111.619 25.496 111.619 27.16C111.619 28.4187 111.427 29.5493 111.043 30.552C110.68 31.5547 110.147 32.4187 109.443 33.144C108.739 33.848 107.896 34.392 106.915 34.776C105.933 35.1387 104.835 35.32 103.619 35.32ZM103.619 32.28C104.408 32.28 105.101 32.088 105.699 31.704C106.296 31.32 106.755 30.7547 107.075 30.008C107.416 29.24 107.587 28.2907 107.587 27.16C107.587 25.4533 107.224 24.184 106.499 23.352C105.773 22.4987 104.813 22.072 103.619 22.072C102.829 22.072 102.136 22.264 101.539 22.648C100.941 23.0107 100.472 23.576 100.131 24.344C99.8105 25.0907 99.6505 26.0293 99.6505 27.16C99.6505 28.8453 100.013 30.1253 100.739 31C101.464 31.8533 102.424 32.28 103.619 32.28ZM121.896 35.32C120.275 35.32 118.867 34.9893 117.672 34.328C116.477 33.6667 115.549 32.728 114.888 31.512C114.227 30.2747 113.896 28.824 113.896 27.16C113.896 25.9013 114.077 24.7813 114.44 23.8C114.824 22.7973 115.368 21.944 116.072 21.24C116.776 20.5147 117.619 19.9707 118.6 19.608C119.581 19.224 120.68 19.032 121.896 19.032C123.517 19.032 124.925 19.3627 126.12 20.024C127.315 20.6853 128.243 21.624 128.904 22.84C129.565 24.056 129.896 25.496 129.896 27.16C129.896 28.4187 129.704 29.5493 129.32 30.552C128.957 31.5547 128.424 32.4187 127.72 33.144C127.016 33.848 126.173 34.392 125.192 34.776C124.211 35.1387 123.112 35.32 121.896 35.32ZM121.896 32.28C122.685 32.28 123.379 32.088 123.976 31.704C124.573 31.32 125.032 30.7547 125.352 30.008C125.693 29.24 125.864 28.2907 125.864 27.16C125.864 25.4533 125.501 24.184 124.776 23.352C124.051 22.4987 123.091 22.072 121.896 22.072C121.107 22.072 120.413 22.264 119.816 22.648C119.219 23.0107 118.749 23.576 118.408 24.344C118.088 25.0907 117.928 26.0293 117.928 27.16C117.928 28.8453 118.291 30.1253 119.016 31C119.741 31.8533 120.701 32.28 121.896 32.28ZM140.334 41.08C139.182 41.08 138.062 40.9733 136.974 40.76C135.907 40.5467 134.936 40.216 134.062 39.768C133.656 39.5547 133.379 39.2987 133.23 39C133.102 38.7013 133.059 38.392 133.102 38.072C133.166 37.7733 133.294 37.5067 133.486 37.272C133.699 37.0373 133.955 36.8773 134.254 36.792C134.552 36.7067 134.862 36.7493 135.182 36.92C136.12 37.3893 137.006 37.688 137.838 37.816C138.691 37.9653 139.416 38.04 140.014 38.04C141.443 38.04 142.51 37.688 143.214 36.984C143.939 36.3013 144.302 35.2773 144.302 33.912V31.032H144.59C144.27 32.12 143.598 32.9947 142.574 33.656C141.571 34.296 140.43 34.616 139.15 34.616C137.742 34.616 136.515 34.296 135.47 33.656C134.424 32.9947 133.614 32.0773 133.038 30.904C132.462 29.7307 132.174 28.3653 132.174 26.808C132.174 25.6347 132.334 24.5787 132.654 23.64C132.995 22.68 133.464 21.8587 134.062 21.176C134.68 20.4933 135.416 19.9707 136.27 19.608C137.144 19.224 138.104 19.032 139.15 19.032C140.472 19.032 141.624 19.3627 142.606 20.024C143.608 20.664 144.259 21.5173 144.558 22.584L144.238 23.384V21.112C144.238 20.4507 144.408 19.9493 144.75 19.608C145.112 19.2667 145.603 19.096 146.222 19.096C146.862 19.096 147.352 19.2667 147.694 19.608C148.035 19.9493 148.206 20.4507 148.206 21.112V33.432C148.206 35.9707 147.534 37.88 146.19 39.16C144.846 40.44 142.894 41.08 140.334 41.08ZM140.238 31.576C141.07 31.576 141.784 31.384 142.382 31C142.979 30.616 143.438 30.072 143.758 29.368C144.099 28.6427 144.27 27.7893 144.27 26.808C144.27 25.336 143.907 24.184 143.182 23.352C142.456 22.4987 141.475 22.072 140.238 22.072C139.406 22.072 138.691 22.264 138.094 22.648C137.496 23.032 137.027 23.576 136.686 24.28C136.366 24.984 136.206 25.8267 136.206 26.808C136.206 28.28 136.568 29.4427 137.294 30.296C138.019 31.1493 139 31.576 140.238 31.576ZM157.534 35.32C155.763 35.32 154.43 34.8187 153.534 33.816C152.638 32.792 152.19 31.2987 152.19 29.336V14.2C152.19 13.5387 152.361 13.0373 152.702 12.696C153.043 12.3547 153.534 12.184 154.174 12.184C154.814 12.184 155.305 12.3547 155.646 12.696C156.009 13.0373 156.19 13.5387 156.19 14.2V29.144C156.19 30.1253 156.393 30.8507 156.798 31.32C157.225 31.7893 157.822 32.024 158.59 32.024C158.761 32.024 158.921 32.024 159.07 32.024C159.219 32.0027 159.369 31.9813 159.518 31.96C159.817 31.9173 160.019 32.0027 160.126 32.216C160.233 32.408 160.286 32.8133 160.286 33.432C160.286 33.9653 160.179 34.3813 159.966 34.68C159.753 34.9787 159.401 35.16 158.91 35.224C158.697 35.2453 158.473 35.2667 158.238 35.288C158.003 35.3093 157.769 35.32 157.534 35.32ZM169.804 35.32C168.034 35.32 166.508 34.9893 165.228 34.328C163.948 33.6667 162.956 32.728 162.252 31.512C161.57 30.296 161.228 28.856 161.228 27.192C161.228 25.5707 161.559 24.152 162.22 22.936C162.903 21.72 163.831 20.7707 165.004 20.088C166.199 19.384 167.554 19.032 169.068 19.032C170.178 19.032 171.17 19.2133 172.044 19.576C172.94 19.9387 173.698 20.4613 174.316 21.144C174.956 21.8267 175.436 22.6587 175.756 23.64C176.098 24.6 176.268 25.688 176.268 26.904C176.268 27.288 176.13 27.5867 175.852 27.8C175.596 27.992 175.223 28.088 174.732 28.088H164.46V25.784H173.452L172.94 26.264C172.94 25.2827 172.791 24.4613 172.492 23.8C172.215 23.1387 171.799 22.6373 171.244 22.296C170.711 21.9333 170.039 21.752 169.228 21.752C168.332 21.752 167.564 21.9653 166.924 22.392C166.306 22.7973 165.826 23.384 165.484 24.152C165.164 24.8987 165.004 25.7947 165.004 26.84V27.064C165.004 28.8133 165.41 30.1253 166.22 31C167.052 31.8533 168.268 32.28 169.868 32.28C170.423 32.28 171.042 32.216 171.724 32.088C172.428 31.9387 173.09 31.6933 173.708 31.352C174.156 31.096 174.551 30.9893 174.892 31.032C175.234 31.0533 175.5 31.1707 175.692 31.384C175.906 31.5973 176.034 31.864 176.076 32.184C176.119 32.4827 176.055 32.792 175.884 33.112C175.735 33.432 175.468 33.7093 175.084 33.944C174.338 34.4133 173.474 34.7653 172.492 35C171.532 35.2133 170.636 35.32 169.804 35.32Z" fill="black"/>
</svg>
