<svg width="70" height="70" viewBox="0 0 70 70" fill="none" xmlns="http://www.w3.org/2000/svg">
<rect width="70" height="70" rx="20" fill="#9BFA19"/>
<path d="M42.5 43.3989C42.8094 43.4245 43.1223 43.4375 43.4383 43.4375C44.7487 43.4375 46.0068 43.2135 47.1763 42.8016C47.1842 42.7021 47.1883 42.6015 47.1883 42.5C47.1883 40.4289 45.5093 38.75 43.4383 38.75C42.6538 38.75 41.9255 38.9909 41.3235 39.4028M42.5 43.3989C42.5 43.4118 42.5001 43.4246 42.5001 43.4375C42.5001 43.7187 42.4846 43.9964 42.4544 44.2696C40.2585 45.5296 37.7134 46.25 35.0001 46.25C32.2867 46.25 29.7417 45.5296 27.5457 44.2696C27.5155 43.9964 27.5001 43.7187 27.5001 43.4375C27.5001 43.4247 27.5001 43.4119 27.5002 43.3991M42.5 43.3989C42.4926 41.9282 42.0619 40.5577 41.3235 39.4028M41.3235 39.4028C39.9911 37.319 37.6569 35.9375 35.0001 35.9375C32.3436 35.9375 30.0096 37.3186 28.6772 39.402M28.6772 39.402C28.0753 38.9906 27.3475 38.75 26.5635 38.75C24.4924 38.75 22.8135 40.4289 22.8135 42.5C22.8135 42.6015 22.8175 42.7021 22.8254 42.8016C23.995 43.2135 25.2531 43.4375 26.5635 43.4375C26.8789 43.4375 27.1913 43.4245 27.5002 43.3991M28.6772 39.402C27.9384 40.5571 27.5075 41.928 27.5002 43.3991M38.7501 28.4375C38.7501 30.5086 37.0711 32.1875 35.0001 32.1875C32.929 32.1875 31.2501 30.5086 31.2501 28.4375C31.2501 26.3664 32.929 24.6875 35.0001 24.6875C37.0711 24.6875 38.7501 26.3664 38.7501 28.4375ZM46.2501 32.1875C46.2501 33.7408 44.9909 35 43.4376 35C41.8843 35 40.6251 33.7408 40.6251 32.1875C40.6251 30.6342 41.8843 29.375 43.4376 29.375C44.9909 29.375 46.2501 30.6342 46.2501 32.1875ZM29.3751 32.1875C29.3751 33.7408 28.1159 35 26.5626 35C25.0093 35 23.7501 33.7408 23.7501 32.1875C23.7501 30.6342 25.0093 29.375 26.5626 29.375C28.1159 29.375 29.3751 30.6342 29.3751 32.1875Z" stroke="#0F172A" stroke-width="2" stroke-linecap="round" stroke-linejoin="round"/>
</svg>
