<svg width="70" height="70" viewBox="0 0 70 70" fill="none" xmlns="http://www.w3.org/2000/svg">
<rect width="70" height="70" rx="20" fill="#9BFA19"/>
<path d="M45.3125 37.6874V42.9999C45.3125 44.368 44.3289 45.5449 42.9727 45.7249C40.3643 46.0713 37.703 46.25 35 46.25C32.297 46.25 29.6357 46.0713 27.0273 45.7249C25.6711 45.5449 24.6875 44.368 24.6875 42.9999V37.6874M45.3125 37.6874C45.9024 37.1845 46.25 36.4236 46.25 35.6111V30.8821C46.25 29.5309 45.2901 28.3635 43.9538 28.1636C42.5471 27.9531 41.1244 27.7914 39.6875 27.6804M45.3125 37.6874C45.0705 37.8937 44.7877 38.0566 44.4714 38.1617C41.4941 39.1516 38.3097 39.6875 35 39.6875C31.6904 39.6875 28.5059 39.1516 25.5286 38.1617C25.2123 38.0565 24.9295 37.8937 24.6875 37.6874M24.6875 37.6874C24.0976 37.1845 23.75 36.4236 23.75 35.6111V30.8821C23.75 29.5309 24.7099 28.3635 26.0462 28.1636C27.4529 27.9531 28.8756 27.7914 30.3125 27.6804M39.6875 27.6804V26.5625C39.6875 25.0092 38.4283 23.75 36.875 23.75H33.125C31.5717 23.75 30.3125 25.0092 30.3125 26.5625V27.6804M39.6875 27.6804C38.1407 27.5609 36.5775 27.5 35 27.5C33.4225 27.5 31.8593 27.5609 30.3125 27.6804M35 35.9375H35.0094V35.9469H35V35.9375Z" stroke="#0F172A" stroke-width="2" stroke-linecap="round" stroke-linejoin="round"/>
</svg>
