<svg width="271" height="100" viewBox="0 0 271 100" fill="none" xmlns="http://www.w3.org/2000/svg">
<rect x="0.666687" width="270" height="100" rx="23.8889" fill="white"/>
<path d="M115.317 35.9487H120.961L130.557 53.3073L140.153 35.9487H145.674V64.4722H141.07V42.6111L132.655 57.7489H128.336L119.921 42.6111V64.4722H115.317V35.9487Z" fill="#1C2B33"/>
<path d="M160.526 64.9816C158.394 64.9816 156.519 64.5096 154.903 63.5656C153.287 62.6217 152.027 61.3143 151.124 59.6437C150.22 57.9729 149.769 56.0578 149.769 53.8982C149.769 51.7115 150.21 49.776 151.093 48.0916C151.976 46.4076 153.202 45.0901 154.771 44.139C156.34 43.1884 158.143 42.7131 160.18 42.7128C162.204 42.7128 163.946 43.1916 165.406 44.1491C166.866 45.1069 167.99 46.4482 168.778 48.1731C169.565 49.8982 169.959 51.922 169.959 54.2446V55.5076H154.333C154.618 57.2465 155.321 58.6149 156.441 59.6129C157.562 60.6113 158.978 61.1105 160.689 61.1104C162.061 61.1104 163.243 60.9067 164.234 60.4992C165.226 60.0917 166.156 59.4738 167.026 58.6453L169.47 61.6402C167.039 63.868 164.057 64.9818 160.526 64.9816ZM163.888 48.0609C162.923 47.0763 161.66 46.584 160.098 46.5838C158.577 46.5838 157.304 47.0864 156.278 48.0916C155.253 49.0968 154.604 50.4482 154.333 52.146H165.538C165.402 50.4074 164.852 49.0457 163.888 48.0609Z" fill="#1C2B33"/>
<path d="M175.542 46.9915H171.304V43.2223H175.542V36.9879H179.984V43.2223H186.422V46.9915H179.984V56.5468C179.984 58.1358 180.255 59.27 180.799 59.9492C181.342 60.6285 182.272 60.9681 183.59 60.9678C184.174 60.9678 184.67 60.9441 185.077 60.8965C185.485 60.8492 185.933 60.7847 186.422 60.7029V64.4313C185.864 64.5927 185.296 64.7153 184.721 64.7982C184.063 64.895 183.399 64.9427 182.734 64.9408C177.939 64.9408 175.542 62.3194 175.542 57.0766V46.9915Z" fill="#1C2B33"/>
<path d="M209.567 64.4722H205.207V61.4976C204.433 62.6115 203.448 63.4706 202.253 64.0749C201.058 64.679 199.699 64.9813 198.178 64.9817C196.304 64.9817 194.643 64.5028 193.197 63.5451C191.75 62.5876 190.613 61.2701 189.784 59.5927C188.956 57.9152 188.541 55.9967 188.541 53.8371C188.541 51.6639 188.962 49.7419 189.805 48.0711C190.647 46.4006 191.811 45.0899 193.299 44.139C194.786 43.1885 196.494 42.7131 198.423 42.7128C199.876 42.7128 201.18 42.9947 202.334 43.5585C203.473 44.1094 204.46 44.9314 205.207 45.9523V43.2223H209.567V64.4722ZM205.126 50.6588C204.65 49.4499 203.9 48.4956 202.874 47.7961C201.849 47.0966 200.664 46.7469 199.319 46.7469C197.417 46.7469 195.903 47.3853 194.776 48.662C193.648 49.9388 193.085 51.6638 193.085 53.8371C193.085 56.0241 193.628 57.7559 194.715 59.0325C195.801 60.3093 197.275 60.9476 199.136 60.9476C200.507 60.9476 201.73 60.5944 202.803 59.888C203.876 59.1821 204.65 58.2313 205.126 57.0357L205.126 50.6588Z" fill="#1C2B33"/>
<path d="M65.5452 54.7843C65.5452 56.5089 65.9238 57.833 66.4185 58.634C67.0672 59.6832 68.0347 60.1277 69.0211 60.1277C70.2934 60.1277 71.4573 59.812 73.7002 56.7099C75.4971 54.2236 77.6143 50.7335 79.0389 48.5455L81.4515 44.8387C83.1274 42.2644 85.0672 39.4026 87.2913 37.4628C89.107 35.8796 91.0656 35 93.0368 35C96.3463 35 99.4986 36.9178 101.911 40.5147C104.551 44.4539 105.833 49.4157 105.833 54.5361C105.833 57.5801 105.233 59.8167 104.212 61.5838C103.226 63.2927 101.303 65 98.0693 65V60.1277C100.838 60.1277 101.53 57.5832 101.53 54.6712C101.53 50.5215 100.562 45.9162 98.4306 42.6256C96.918 40.2916 94.9578 38.8654 92.8012 38.8654C90.4688 38.8654 88.5918 40.6246 86.4824 43.7612C85.3609 45.4277 84.2096 47.4586 82.9169 49.7502L81.4939 52.2712C78.6353 57.3398 77.9112 58.4942 76.4819 60.3995C73.9766 63.7356 71.8374 65 69.0211 65C65.6803 65 63.5677 63.5534 62.2593 61.3733C61.1913 59.5969 60.6667 57.266 60.6667 54.61L65.5452 54.7843Z" fill="#0081FB"/>
<path d="M64.5133 40.8586C66.7499 37.411 69.9777 35 73.6798 35C75.8237 35 77.9552 35.6346 80.1808 37.4518C82.6154 39.4388 85.2101 42.7105 88.4473 48.1026L89.608 50.0377C92.4101 54.7058 94.0044 57.1073 94.9374 58.2398C96.1374 59.6942 96.9777 60.1277 98.0693 60.1277C100.838 60.1277 101.529 57.5832 101.529 54.6712L105.833 54.5361C105.833 57.5801 105.233 59.8167 104.212 61.5838C103.226 63.2927 101.303 65 98.0693 65C96.0588 65 94.2777 64.5633 92.308 62.7052C90.7939 61.2791 89.0237 58.7455 87.662 56.4681L83.6112 49.7016C81.5787 46.3057 79.7143 43.7738 78.6353 42.6272C77.4745 41.3942 75.9824 39.9052 73.6012 39.9052C71.674 39.9052 70.0374 41.2576 68.6677 43.3262L64.5133 40.8586Z" fill="url(#paint0_linear_187_140)"/>
<path d="M73.6012 39.9052C71.674 39.9052 70.0374 41.2576 68.6677 43.3262C66.7311 46.2492 65.5452 50.6031 65.5452 54.7843C65.5452 56.5089 65.9238 57.833 66.4185 58.634L62.2593 61.3733C61.1913 59.5969 60.6667 57.266 60.6667 54.6099C60.6667 49.7801 61.9923 44.7461 64.5133 40.8586C66.7499 37.411 69.9777 35 73.6798 35L73.6012 39.9052Z" fill="url(#paint1_linear_187_140)"/>
<defs>
<linearGradient id="paint0_linear_187_140" x1="70.2478" y1="53.377" x2="101.347" y2="54.9476" gradientUnits="userSpaceOnUse">
<stop stop-color="#0064E1"/>
<stop offset="0.4" stop-color="#0064E1"/>
<stop offset="0.83" stop-color="#0073EE"/>
<stop offset="1" stop-color="#0082FB"/>
</linearGradient>
<linearGradient id="paint1_linear_187_140" x1="67.7347" y1="56.8325" x2="67.7347" y2="45.3665" gradientUnits="userSpaceOnUse">
<stop stop-color="#0082FB"/>
<stop offset="1" stop-color="#0064E0"/>
</linearGradient>
</defs>
</svg>
