<svg width="270" height="100" viewBox="0 0 270 100" fill="none" xmlns="http://www.w3.org/2000/svg">
<rect width="270" height="100" rx="23.8889" fill="white"/>
<g clip-path="url(#clip0_187_103)">
<path d="M222.562 47.9652V44.8776H218.728V40.0777L218.599 40.1175L214.997 41.2193L214.926 41.2409V44.8778H209.242V42.8517C209.242 41.9083 209.453 41.1864 209.869 40.7049C210.282 40.2292 210.872 39.9874 211.626 39.9874C212.167 39.9874 212.728 40.1149 213.292 40.3664L213.433 40.4296V37.178L213.367 37.1536C212.84 36.9644 212.124 36.8691 211.237 36.8691C210.119 36.8691 209.103 37.1125 208.217 37.5948C207.33 38.0778 206.632 38.7673 206.144 39.644C205.657 40.5196 205.41 41.531 205.41 42.6501V44.8776H202.74V47.9652H205.41V60.9723H209.242V47.9652H214.926V56.231C214.926 59.6352 216.532 61.3604 219.699 61.3604C220.219 61.3604 220.767 61.2994 221.326 61.18C221.896 61.0574 222.283 60.935 222.511 60.8042L222.562 60.7743V57.6582L222.406 57.7613C222.198 57.8999 221.939 58.0132 221.635 58.0974C221.33 58.1832 221.076 58.2262 220.878 58.2262C220.136 58.2262 219.588 58.0263 219.247 57.6318C218.903 57.2337 218.728 56.5375 218.728 55.5637V47.9652H222.562ZM194.181 58.2267C192.79 58.2267 191.693 57.7654 190.92 56.8568C190.143 55.9436 189.749 54.6417 189.749 52.9876C189.749 51.2809 190.143 49.9452 190.921 49.0159C191.694 48.0927 192.78 47.6241 194.15 47.6241C195.479 47.6241 196.537 48.0716 197.295 48.9549C198.056 49.8428 198.443 51.1678 198.443 52.8943C198.443 54.6421 198.079 55.9846 197.362 56.8826C196.651 57.7739 195.58 58.2267 194.181 58.2267ZM194.352 44.4899C191.698 44.4899 189.59 45.2676 188.087 46.8013C186.585 48.3352 185.823 50.4579 185.823 53.111C185.823 55.631 186.566 57.6579 188.033 59.1346C189.499 60.6118 191.495 61.36 193.963 61.36C196.536 61.36 198.602 60.5715 200.104 59.0166C201.607 57.4633 202.368 55.3606 202.368 52.7695C202.368 50.2102 201.653 48.1681 200.244 46.7013C198.835 45.2338 196.852 44.4899 194.352 44.4899ZM179.644 44.4899C177.839 44.4899 176.345 44.9517 175.204 45.8621C174.057 46.778 173.475 47.9793 173.475 49.4328C173.475 50.1884 173.6 50.8596 173.848 51.4289C174.096 52 174.481 52.5029 174.993 52.9249C175.501 53.3435 176.284 53.782 177.322 54.2282C178.195 54.5874 178.846 54.8912 179.26 55.1307C179.664 55.3654 179.951 55.6013 180.113 55.831C180.27 56.0559 180.35 56.3636 180.35 56.7434C180.35 57.8247 179.54 58.3508 177.874 58.3508C177.256 58.3508 176.551 58.2217 175.779 57.9673C175.012 57.7168 174.289 57.3498 173.633 56.8794L173.474 56.7653V60.4552L173.533 60.4824C174.075 60.7327 174.759 60.9438 175.565 61.1099C176.369 61.2761 177.1 61.3607 177.734 61.3607C179.693 61.3607 181.271 60.8967 182.422 59.9809C183.581 59.0587 184.168 57.8291 184.168 56.3252C184.168 55.2404 183.852 54.31 183.229 53.5597C182.61 52.8155 181.536 52.1323 180.038 51.5284C178.845 51.0495 178.081 50.6519 177.765 50.3467C177.461 50.0519 177.307 49.6349 177.307 49.1069C177.307 48.6389 177.498 48.2639 177.889 47.9602C178.283 47.655 178.832 47.4998 179.52 47.4998C180.158 47.4998 180.812 47.6007 181.461 47.7984C182.111 47.9961 182.681 48.2608 183.157 48.5847L183.314 48.6917V45.1915L183.253 45.1657C182.814 44.9773 182.235 44.8162 181.532 44.6854C180.831 44.5555 180.196 44.4899 179.644 44.4899ZM163.483 58.2267C162.093 58.2267 160.995 57.7654 160.223 56.8568C159.445 55.9436 159.052 54.6421 159.052 52.9876C159.052 51.2809 159.445 49.9452 160.224 49.0159C160.996 48.0927 162.082 47.6241 163.453 47.6241C164.781 47.6241 165.839 48.0716 166.597 48.9549C167.358 49.8428 167.745 51.1678 167.745 52.8943C167.745 54.6421 167.381 55.9846 166.665 56.8826C165.953 57.7739 164.883 58.2267 163.483 58.2267ZM163.654 44.4899C161 44.4899 158.891 45.2676 157.389 46.8013C155.887 48.3352 155.125 50.4579 155.125 53.111C155.125 55.632 155.869 57.6579 157.335 59.1346C158.802 60.6118 160.797 61.36 163.266 61.36C165.838 61.36 167.905 60.5715 169.407 59.0166C170.909 57.4633 171.67 55.3606 171.67 52.7695C171.67 50.2102 170.956 48.1681 169.546 46.7013C168.136 45.2338 166.154 44.4899 163.654 44.4899ZM149.308 47.6649V44.8776H145.522V60.972H149.308V52.7391C149.308 51.3392 149.625 50.1891 150.251 49.3204C150.87 48.4621 151.694 48.0271 152.7 48.0271C153.041 48.0271 153.424 48.0834 153.838 48.1946C154.248 48.3052 154.546 48.4252 154.721 48.5516L154.88 48.6669V44.8501L154.819 44.8238C154.466 44.674 153.967 44.5984 153.336 44.5984C152.385 44.5984 151.533 44.9041 150.804 45.506C150.164 46.035 149.702 46.7604 149.348 47.6649H149.308ZM138.742 44.4899C137.005 44.4899 135.456 44.8624 134.138 45.5965C132.818 46.3324 131.796 47.383 131.102 48.7189C130.41 50.0515 130.059 51.6082 130.059 53.3442C130.059 54.8649 130.399 56.2604 131.072 57.4903C131.746 58.7222 132.699 59.686 133.905 60.3545C135.11 61.0221 136.502 61.3606 138.044 61.3606C139.843 61.3606 141.379 61.0009 142.611 60.2915L142.661 60.2629V56.7945L142.502 56.9107C141.944 57.3171 141.32 57.6414 140.65 57.8751C139.98 58.1086 139.37 58.2267 138.835 58.2267C137.35 58.2267 136.157 57.7618 135.292 56.8454C134.424 55.9278 133.984 54.6393 133.984 53.018C133.984 51.3864 134.443 50.0648 135.347 49.0896C136.248 48.1173 137.443 47.6241 138.898 47.6241C140.142 47.6241 141.355 48.0455 142.502 48.8777L142.661 48.993V45.3384L142.61 45.3095C142.178 45.0678 141.589 44.8683 140.858 44.717C140.13 44.566 139.418 44.4899 138.742 44.4899ZM127.451 44.8778H123.665V60.972H127.451V44.8778ZM125.597 38.0216C124.974 38.0216 124.431 38.2337 123.984 38.654C123.536 39.0755 123.308 39.6063 123.308 40.2326C123.308 40.8491 123.533 41.3701 123.977 41.7804C124.418 42.1896 124.963 42.3969 125.597 42.3969C126.231 42.3969 126.778 42.1896 127.225 41.7811C127.674 41.3701 127.902 40.8493 127.902 40.2326C127.902 39.6282 127.68 39.1029 127.243 38.671C126.806 38.24 126.252 38.0216 125.597 38.0216ZM116.151 43.6904V60.972H120.015V38.5143H114.667L107.87 55.1952L101.274 38.5143H95.7091V60.9718H99.3399V43.6887H99.4646L106.43 60.972H109.17L116.026 43.6904H116.151Z" fill="#706D6E"/>
<path d="M64.8098 48.8194H47V31.0096H64.8098V48.8194Z" fill="#F1511B"/>
<path d="M84.4738 48.8194H66.6644V31.0096H84.4738V48.8194Z" fill="#80CC28"/>
<path d="M64.8093 68.4904H47V50.6808H64.8093V68.4904Z" fill="#00ADEF"/>
<path d="M84.4738 68.4904H66.6644V50.6808H84.4738V68.4904Z" fill="#FBBC09"/>
</g>
<defs>
<clipPath id="clip0_187_103">
<rect width="176.25" height="37.5" fill="white" transform="translate(47 31)"/>
</clipPath>
</defs>
</svg>
