<svg width="271" height="100" viewBox="0 0 271 100" fill="none" xmlns="http://www.w3.org/2000/svg">
<rect x="0.333344" width="270" height="100" rx="23.8889" fill="white"/>
<path d="M212.055 48.2793V51.8527H214.566V55.398C214.574 55.7148 214.556 56.0565 214.502 56.3299C214.402 56.9912 213.774 58.1172 211.991 58.1172C210.22 58.1172 209.603 56.9912 209.496 56.3299C209.451 56.0565 209.431 55.7148 209.431 55.398V44.2C209.431 43.8039 209.458 43.3704 209.542 43.0422C209.664 42.4454 210.193 41.2685 211.978 41.2685C213.852 41.2685 214.32 42.5093 214.427 43.0422C214.498 43.3952 214.502 43.9873 214.502 43.9873V45.3471H220.673V44.5433C220.673 44.5433 220.701 43.7045 220.626 42.9218C220.162 38.3256 216.375 36.8714 212.033 36.8714C207.682 36.8714 203.972 38.3391 203.432 42.9218C203.383 43.3408 203.308 44.0946 203.308 44.5433V54.8443C203.308 55.2929 203.323 55.6403 203.406 56.4602C203.809 60.9299 207.682 62.5142 212.015 62.5142C216.375 62.5142 220.222 60.9299 220.632 56.4602C220.704 55.6403 220.712 55.2929 220.722 54.8443V48.2793H212.055ZM169.508 37.5306H163.311V55.6563C163.321 55.9722 163.311 56.3271 163.257 56.5873C163.128 57.1957 162.612 58.3667 160.902 58.3667C159.215 58.3667 158.686 57.1957 158.566 56.5873C158.504 56.3271 158.496 55.9722 158.504 55.6563V37.5306H152.309V55.0938C152.302 55.5465 152.337 56.4715 152.364 56.7137C152.791 61.2904 156.398 62.7763 160.902 62.7763C165.415 62.7763 169.02 61.2904 169.455 56.7137C169.49 56.4715 169.535 55.5465 169.508 55.0938V37.5306ZM112.573 37.5306L109.482 56.6829L106.392 37.5306H96.3968L95.8667 62.0319H101.99L102.156 39.3503L106.369 62.0319H112.582L116.799 39.3503L116.966 62.0319H123.105L122.557 37.5306H112.573ZM75.5645 37.5306L71.0259 62.0319H77.6444L81.0645 39.3503L84.4026 62.0319H90.9751L86.4554 37.5306H75.5645ZM191.164 57.2571L185.394 37.5306H176.302V61.7765H182.317L181.967 41.4188L188.164 61.7765H196.884V37.5306H190.83L191.164 57.2571ZM135.529 43.9071C135.42 43.4232 135.451 42.9092 135.508 42.6405C135.683 41.8562 136.21 41.0007 137.728 41.0007C139.143 41.0007 139.973 41.8829 139.973 43.2068V44.705H146.013V42.9973C146.013 37.7181 141.28 36.8887 137.854 36.8887C133.538 36.8887 130.013 38.3114 129.369 42.2837C129.199 43.3647 129.157 44.3243 129.428 45.5488C130.478 50.5017 139.1 51.9385 140.352 55.0708C140.573 55.6642 140.509 56.4208 140.397 56.8666C140.209 57.6818 139.661 58.5017 138.035 58.5017C136.511 58.5017 135.593 57.6252 135.593 56.3041L135.591 53.9527H129.089V55.8218C129.089 61.2379 133.331 62.872 137.9 62.872C142.276 62.872 145.891 61.3766 146.471 57.3231C146.747 55.2288 146.538 53.8646 146.427 53.3508C145.414 48.2708 136.224 46.7427 135.529 43.9071ZM55.8458 43.847C55.7272 43.3531 55.7549 42.8318 55.821 42.5599C55.9883 41.7794 56.5184 40.9089 58.0635 40.9089C59.4966 40.9089 60.3404 41.7995 60.3404 43.1341V44.6505H66.4517V42.9293C66.4517 37.5995 61.6463 36.75 58.1821 36.75C53.8301 36.75 50.274 38.1947 49.6234 42.1956C49.4453 43.2939 49.4148 44.2601 49.6722 45.4981C50.733 50.5074 59.4409 51.9558 60.7078 55.1256C60.945 55.7148 60.8733 56.4715 60.7557 56.9346C60.5546 57.7582 60.0018 58.5898 58.3627 58.5898C56.8321 58.5898 55.9166 57.6982 55.9166 56.3588L55.9081 54.0011H49.3333V55.8747C49.3333 61.3527 53.6357 63 58.2403 63C62.6672 63 66.3026 61.4914 66.8956 57.3911C67.1904 55.2775 66.9693 53.902 66.8698 53.3804C65.8357 48.2381 56.5433 46.715 55.8458 43.847Z" fill="#1428A0"/>
</svg>
