<svg width="177" height="48" viewBox="0 0 177 48" fill="none" xmlns="http://www.w3.org/2000/svg">
<circle cx="24" cy="24" r="24" fill="#F5F5F5"/>
<path d="M38.1972 21.2764C39.2608 21.9097 40.6401 21.5583 41.2727 20.4916C41.9053 19.4264 41.5554 18.0487 40.4883 17.4153C31.5822 12.1287 17.4892 11.6313 9.01177 14.2051C7.82467 14.5658 7.15598 15.8189 7.51556 17.0056C7.87476 18.1916 9.12865 18.861 10.3146 18.501C17.7001 16.2597 30.4607 16.6822 38.1972 21.2764Z" fill="#1ED760"/>
<path d="M37.9437 28.0812C38.485 27.2024 38.2077 26.0507 37.3278 25.5086C29.9206 20.9567 19.0841 19.6749 10.3674 22.3205C9.37914 22.6214 8.82152 23.6645 9.11936 24.6539C9.42031 25.6414 10.4649 26.199 11.4547 25.9C19.0852 23.5845 28.9202 24.7327 35.3699 28.6975C36.2498 29.238 37.4008 28.9619 37.9437 28.0812Z" fill="#1ED760"/>
<path d="M35.0071 34.6166C35.4382 33.9111 35.2161 32.9896 34.5112 32.5589C28.1847 28.6936 20.343 27.7943 11.2003 29.8838C10.3934 30.0679 9.89091 30.8701 10.0754 31.6755C10.2594 32.4797 11.0613 32.9845 11.8663 32.8001C20.221 30.8915 27.3141 31.6697 32.9502 35.1141C33.655 35.5451 34.5761 35.3238 35.0071 34.6166Z" fill="#1ED760"/>
<path d="M81.24 35.32C80.3013 35.32 79.3627 35.2453 78.424 35.096C77.4853 34.968 76.6 34.7653 75.768 34.488C74.936 34.1893 74.1893 33.8267 73.528 33.4C73.144 33.144 72.8773 32.8347 72.728 32.472C72.5787 32.1093 72.5253 31.7573 72.568 31.416C72.632 31.0533 72.7707 30.744 72.984 30.488C73.2187 30.2107 73.5067 30.04 73.848 29.976C74.1893 29.912 74.5627 30.008 74.968 30.264C75.9067 30.8187 76.8987 31.224 77.944 31.48C78.9893 31.736 80.088 31.864 81.24 31.864C82.9253 31.864 84.152 31.5867 84.92 31.032C85.688 30.456 86.072 29.72 86.072 28.824C86.072 28.0773 85.7947 27.4907 85.24 27.064C84.7067 26.6373 83.7787 26.2853 82.456 26.008L78.936 25.272C76.9093 24.8453 75.3947 24.1307 74.392 23.128C73.4107 22.104 72.92 20.76 72.92 19.096C72.92 18.0507 73.1333 17.1013 73.56 16.248C73.9867 15.3947 74.584 14.6587 75.352 14.04C76.1413 13.4213 77.0693 12.952 78.136 12.632C79.224 12.2907 80.4187 12.12 81.72 12.12C83 12.12 84.216 12.28 85.368 12.6C86.52 12.92 87.5547 13.3893 88.472 14.008C88.8133 14.2427 89.0373 14.5307 89.144 14.872C89.272 15.2133 89.304 15.5547 89.24 15.896C89.176 16.216 89.0267 16.4933 88.792 16.728C88.5573 16.9627 88.2587 17.1013 87.896 17.144C87.5547 17.1867 87.16 17.08 86.712 16.824C85.9227 16.376 85.1227 16.056 84.312 15.864C83.5013 15.672 82.6267 15.576 81.688 15.576C80.7067 15.576 79.864 15.7147 79.16 15.992C78.456 16.2693 77.912 16.664 77.528 17.176C77.1653 17.6667 76.984 18.2533 76.984 18.936C76.984 19.704 77.24 20.3227 77.752 20.792C78.264 21.24 79.1387 21.592 80.376 21.848L83.864 22.584C85.976 23.032 87.544 23.736 88.568 24.696C89.6133 25.656 90.136 26.936 90.136 28.536C90.136 29.56 89.9227 30.488 89.496 31.32C89.0907 32.152 88.4933 32.8667 87.704 33.464C86.936 34.0613 86.008 34.52 84.92 34.84C83.832 35.16 82.6053 35.32 81.24 35.32ZM95.0915 41.016C94.4515 41.016 93.9608 40.8453 93.6195 40.504C93.2782 40.1627 93.1075 39.6613 93.1075 39V21.112C93.1075 20.4507 93.2782 19.9493 93.6195 19.608C93.9608 19.2667 94.4408 19.096 95.0595 19.096C95.6995 19.096 96.1902 19.2667 96.5315 19.608C96.8728 19.9493 97.0435 20.4507 97.0435 21.112V23.608L96.6915 22.648C97.0115 21.56 97.6622 20.6853 98.6435 20.024C99.6462 19.3627 100.809 19.032 102.132 19.032C103.497 19.032 104.692 19.3627 105.716 20.024C106.761 20.6853 107.572 21.624 108.148 22.84C108.724 24.0347 109.012 25.4747 109.012 27.16C109.012 28.824 108.724 30.2747 108.148 31.512C107.572 32.728 106.772 33.6667 105.748 34.328C104.724 34.9893 103.518 35.32 102.132 35.32C100.83 35.32 99.6888 35 98.7075 34.36C97.7262 33.6987 97.0648 32.8453 96.7235 31.8H97.1075V39C97.1075 39.6613 96.9262 40.1627 96.5635 40.504C96.2222 40.8453 95.7315 41.016 95.0915 41.016ZM101.012 32.28C101.801 32.28 102.494 32.088 103.092 31.704C103.689 31.32 104.148 30.7547 104.468 30.008C104.809 29.24 104.98 28.2907 104.98 27.16C104.98 25.4533 104.617 24.184 103.892 23.352C103.166 22.4987 102.206 22.072 101.012 22.072C100.222 22.072 99.5288 22.264 98.9315 22.648C98.3342 23.0107 97.8648 23.576 97.5235 24.344C97.2035 25.0907 97.0435 26.0293 97.0435 27.16C97.0435 28.8453 97.4062 30.1253 98.1315 31C98.8568 31.8533 99.8168 32.28 101.012 32.28ZM119.271 35.32C117.65 35.32 116.242 34.9893 115.047 34.328C113.852 33.6667 112.924 32.728 112.263 31.512C111.602 30.2747 111.271 28.824 111.271 27.16C111.271 25.9013 111.452 24.7813 111.815 23.8C112.199 22.7973 112.743 21.944 113.447 21.24C114.151 20.5147 114.994 19.9707 115.975 19.608C116.956 19.224 118.055 19.032 119.271 19.032C120.892 19.032 122.3 19.3627 123.495 20.024C124.69 20.6853 125.618 21.624 126.279 22.84C126.94 24.056 127.271 25.496 127.271 27.16C127.271 28.4187 127.079 29.5493 126.695 30.552C126.332 31.5547 125.799 32.4187 125.095 33.144C124.391 33.848 123.548 34.392 122.567 34.776C121.586 35.1387 120.487 35.32 119.271 35.32ZM119.271 32.28C120.06 32.28 120.754 32.088 121.351 31.704C121.948 31.32 122.407 30.7547 122.727 30.008C123.068 29.24 123.239 28.2907 123.239 27.16C123.239 25.4533 122.876 24.184 122.151 23.352C121.426 22.4987 120.466 22.072 119.271 22.072C118.482 22.072 117.788 22.264 117.191 22.648C116.594 23.0107 116.124 23.576 115.783 24.344C115.463 25.0907 115.303 26.0293 115.303 27.16C115.303 28.8453 115.666 30.1253 116.391 31C117.116 31.8533 118.076 32.28 119.271 32.28ZM137.424 35.32C136.038 35.32 134.875 35.0853 133.936 34.616C133.019 34.1467 132.336 33.464 131.888 32.568C131.44 31.6507 131.216 30.52 131.216 29.176V22.36H129.552C129.04 22.36 128.646 22.232 128.368 21.976C128.091 21.6987 127.952 21.3253 127.952 20.856C127.952 20.3653 128.091 19.992 128.368 19.736C128.646 19.48 129.04 19.352 129.552 19.352H131.216V16.44C131.216 15.7787 131.387 15.2773 131.728 14.936C132.091 14.5947 132.592 14.424 133.232 14.424C133.872 14.424 134.363 14.5947 134.704 14.936C135.046 15.2773 135.216 15.7787 135.216 16.44V19.352H138.608C139.12 19.352 139.515 19.48 139.792 19.736C140.07 19.992 140.208 20.3653 140.208 20.856C140.208 21.3253 140.07 21.6987 139.792 21.976C139.515 22.232 139.12 22.36 138.608 22.36H135.216V28.952C135.216 29.976 135.44 30.744 135.888 31.256C136.336 31.768 137.062 32.024 138.064 32.024C138.427 32.024 138.747 31.992 139.024 31.928C139.302 31.864 139.547 31.8213 139.76 31.8C140.016 31.7787 140.23 31.864 140.4 32.056C140.571 32.2267 140.656 32.5893 140.656 33.144C140.656 33.5707 140.582 33.9547 140.432 34.296C140.304 34.616 140.059 34.84 139.696 34.968C139.419 35.0533 139.056 35.128 138.608 35.192C138.16 35.2773 137.766 35.32 137.424 35.32ZM144.768 35.224C144.128 35.224 143.637 35.032 143.296 34.648C142.954 34.264 142.784 33.7307 142.784 33.048V21.304C142.784 20.6 142.954 20.0667 143.296 19.704C143.637 19.32 144.128 19.128 144.768 19.128C145.408 19.128 145.898 19.32 146.24 19.704C146.602 20.0667 146.784 20.6 146.784 21.304V33.048C146.784 33.7307 146.613 34.264 146.272 34.648C145.93 35.032 145.429 35.224 144.768 35.224ZM144.768 16.152C144.021 16.152 143.434 15.9707 143.008 15.608C142.602 15.224 142.4 14.7013 142.4 14.04C142.4 13.3573 142.602 12.8347 143.008 12.472C143.434 12.1093 144.021 11.928 144.768 11.928C145.536 11.928 146.122 12.1093 146.528 12.472C146.933 12.8347 147.136 13.3573 147.136 14.04C147.136 14.7013 146.933 15.224 146.528 15.608C146.122 15.9707 145.536 16.152 144.768 16.152ZM153.852 35.256C153.212 35.256 152.711 35.0853 152.348 34.744C152.007 34.3813 151.836 33.8693 151.836 33.208V22.36H150.364C149.852 22.36 149.457 22.232 149.18 21.976C148.903 21.6987 148.764 21.3253 148.764 20.856C148.764 20.3653 148.903 19.992 149.18 19.736C149.457 19.48 149.852 19.352 150.364 19.352H152.988L151.836 20.408V19.32C151.836 17.1227 152.391 15.48 153.5 14.392C154.609 13.2827 156.209 12.632 158.3 12.44L159.388 12.344C159.815 12.3013 160.156 12.376 160.412 12.568C160.668 12.7387 160.839 12.9733 160.924 13.272C161.009 13.5493 161.02 13.8373 160.956 14.136C160.892 14.4347 160.753 14.7013 160.54 14.936C160.348 15.1493 160.092 15.2667 159.772 15.288L159.324 15.32C158.108 15.4053 157.223 15.7147 156.668 16.248C156.113 16.7813 155.836 17.592 155.836 18.68V19.864L155.324 19.352H158.556C159.068 19.352 159.463 19.48 159.74 19.736C160.017 19.992 160.156 20.3653 160.156 20.856C160.156 21.3253 160.017 21.6987 159.74 21.976C159.463 22.232 159.068 22.36 158.556 22.36H155.836V33.208C155.836 34.5733 155.175 35.256 153.852 35.256ZM165.932 41.016C165.462 41.016 165.078 40.888 164.78 40.632C164.481 40.3973 164.3 40.0773 164.236 39.672C164.193 39.2667 164.268 38.84 164.46 38.392L166.636 33.56V35.224L160.812 21.752C160.62 21.2827 160.556 20.8453 160.62 20.44C160.684 20.0347 160.876 19.7147 161.196 19.48C161.537 19.224 161.996 19.096 162.572 19.096C163.062 19.096 163.457 19.2133 163.756 19.448C164.054 19.6613 164.321 20.0773 164.556 20.696L168.876 31.48H167.916L172.332 20.664C172.566 20.0667 172.844 19.6613 173.164 19.448C173.484 19.2133 173.91 19.096 174.444 19.096C174.913 19.096 175.286 19.224 175.564 19.48C175.841 19.7147 176.012 20.0347 176.076 20.44C176.14 20.824 176.065 21.2507 175.852 21.72L168.076 39.48C167.798 40.0773 167.5 40.4827 167.18 40.696C166.86 40.9093 166.444 41.016 165.932 41.016Z" fill="black"/>
</svg>
