<svg width="270" height="100" viewBox="0 0 270 100" fill="none" xmlns="http://www.w3.org/2000/svg">
<rect width="270" height="100" rx="23.8889" fill="white"/>
<g clip-path="url(#clip0_187_134)">
<path d="M172.353 37.0331L167.25 37.0464V63.2301H190.652C193.212 62.144 194.583 60.2664 195.113 58.0742H172.34L172.353 37.0331ZM210.541 42.2652H230.062C232.774 41.7288 234.794 39.3346 235.36 37.0199H205.239C205.802 39.3346 207.852 41.7288 210.541 42.2652ZM147.322 42.1924C150.034 41.4042 152.319 39.3346 152.875 37.0397H124.231V52.5109H147.676V57.9417L129.287 57.9583C126.403 58.7596 123.966 60.6935 122.744 63.25L124.231 63.2235H152.716V47.3682H129.287V42.1924H147.322ZM206.027 63.2235H211.104V52.6831H229.585V63.2235H234.658V47.4146L206.027 47.3881V63.2235ZM84.778 42.2487H104.296C107.011 41.7089 109.028 39.3147 109.594 37H79.4764C80.0393 39.3147 82.0858 41.7089 84.778 42.2487ZM34 37.0596C34.5861 39.3511 36.5697 41.6857 39.2884 42.2752H47.5042L47.9214 42.4407V63.1705H53.0542V42.4407L53.5178 42.2752H61.7435C64.4887 41.5665 66.4292 39.3511 67.0087 37.0596V37.0099H34V37.0596ZM84.778 63.2268H104.296C107.011 62.6837 109.028 60.2962 109.594 57.9781H79.4764C80.0393 60.2962 82.0858 62.6837 84.778 63.2268ZM84.778 52.597H104.296C107.011 52.0606 109.028 49.6664 109.594 47.3516H79.4764C80.0393 49.6664 82.0858 52.0606 84.778 52.597Z" fill="#E82127"/>
</g>
<defs>
<clipPath id="clip0_187_134">
<rect width="201.36" height="26.25" fill="white" transform="translate(34 37)"/>
</clipPath>
</defs>
</svg>
