<svg width="177" height="48" viewBox="0 0 177 48" fill="none" xmlns="http://www.w3.org/2000/svg">
<circle cx="24" cy="24" r="24" fill="#F5F5F5"/>
<path d="M36.7239 17.4726C36.7435 17.7547 36.7434 18.0368 36.7434 18.3215C36.7434 26.9958 30.1393 37 18.0635 37V36.9948C14.4962 37 11.003 35.9783 8 34.0518C8.51871 34.1142 9.04002 34.1454 9.56262 34.1467C12.5189 34.1493 15.3906 33.1574 17.7164 31.3311C14.907 31.2778 12.4435 29.4462 11.5829 26.7722C12.567 26.962 13.581 26.923 14.5469 26.6592C11.4841 26.0404 9.28052 23.3496 9.28052 20.2246C9.28052 20.196 9.28052 20.1687 9.28052 20.1414C10.1931 20.6496 11.215 20.9317 12.2602 20.9629C9.37542 19.0351 8.48621 15.1978 10.2282 12.1976C13.5615 16.2988 18.4795 18.792 23.7588 19.0559C23.2297 16.7759 23.9525 14.3866 25.6582 12.7838C28.3024 10.2984 32.4612 10.4258 34.9468 13.0685C36.4171 12.7786 37.8264 12.2392 39.116 11.4748C38.6259 12.9944 37.6002 14.2852 36.2299 15.1055C37.5313 14.9521 38.8027 14.6037 40 14.072C39.1186 15.3928 38.0084 16.5432 36.7239 17.4726Z" fill="#1D9BF0"/>
<path d="M80.952 35.256C80.2907 35.256 79.7787 35.0747 79.416 34.712C79.0747 34.328 78.904 33.8053 78.904 33.144V15.864H72.664C72.1093 15.864 71.672 15.7147 71.352 15.416C71.0533 15.096 70.904 14.6693 70.904 14.136C70.904 13.5813 71.0533 13.1653 71.352 12.888C71.672 12.5893 72.1093 12.44 72.664 12.44H89.24C89.7947 12.44 90.2213 12.5893 90.52 12.888C90.84 13.1653 91 13.5813 91 14.136C91 14.6693 90.84 15.096 90.52 15.416C90.2213 15.7147 89.7947 15.864 89.24 15.864H83V33.144C83 33.8053 82.8293 34.328 82.488 34.712C82.1467 35.0747 81.6347 35.256 80.952 35.256ZM96.4368 35.256C95.9034 35.256 95.4448 35.128 95.0608 34.872C94.6768 34.5947 94.3674 34.168 94.1328 33.592L89.4928 21.752C89.3008 21.24 89.2368 20.792 89.3008 20.408C89.3861 20.0027 89.5888 19.6827 89.9088 19.448C90.2288 19.2133 90.6554 19.096 91.1888 19.096C91.6581 19.096 92.0421 19.2133 92.3408 19.448C92.6394 19.6613 92.8954 20.0773 93.1088 20.696L96.9808 31.352H96.2448L100.245 20.44C100.415 19.9707 100.639 19.6293 100.917 19.416C101.215 19.2027 101.599 19.096 102.069 19.096C102.538 19.096 102.922 19.2133 103.221 19.448C103.519 19.6613 103.743 19.992 103.893 20.44L107.829 31.352H107.157L111.061 20.6C111.274 20.024 111.541 19.6293 111.861 19.416C112.202 19.2027 112.575 19.096 112.981 19.096C113.493 19.096 113.887 19.224 114.165 19.48C114.442 19.736 114.602 20.0667 114.645 20.472C114.687 20.856 114.613 21.2827 114.421 21.752L109.813 33.592C109.599 34.1467 109.29 34.5627 108.885 34.84C108.501 35.1173 108.042 35.256 107.509 35.256C106.975 35.256 106.506 35.1173 106.101 34.84C105.717 34.5627 105.418 34.1467 105.205 33.592L101.013 22.488H102.837L98.7408 33.56C98.5274 34.136 98.2288 34.5627 97.8448 34.84C97.4608 35.1173 96.9914 35.256 96.4368 35.256ZM119.494 35.224C118.854 35.224 118.363 35.032 118.022 34.648C117.681 34.264 117.51 33.7307 117.51 33.048V21.304C117.51 20.6 117.681 20.0667 118.022 19.704C118.363 19.32 118.854 19.128 119.494 19.128C120.134 19.128 120.625 19.32 120.966 19.704C121.329 20.0667 121.51 20.6 121.51 21.304V33.048C121.51 33.7307 121.339 34.264 120.998 34.648C120.657 35.032 120.155 35.224 119.494 35.224ZM119.494 16.152C118.747 16.152 118.161 15.9707 117.734 15.608C117.329 15.224 117.126 14.7013 117.126 14.04C117.126 13.3573 117.329 12.8347 117.734 12.472C118.161 12.1093 118.747 11.928 119.494 11.928C120.262 11.928 120.849 12.1093 121.254 12.472C121.659 12.8347 121.862 13.3573 121.862 14.04C121.862 14.7013 121.659 15.224 121.254 15.608C120.849 15.9707 120.262 16.152 119.494 16.152ZM132.674 35.32C131.288 35.32 130.125 35.0853 129.186 34.616C128.269 34.1467 127.586 33.464 127.138 32.568C126.69 31.6507 126.466 30.52 126.466 29.176V22.36H124.802C124.29 22.36 123.896 22.232 123.618 21.976C123.341 21.6987 123.202 21.3253 123.202 20.856C123.202 20.3653 123.341 19.992 123.618 19.736C123.896 19.48 124.29 19.352 124.802 19.352H126.466V16.44C126.466 15.7787 126.637 15.2773 126.978 14.936C127.341 14.5947 127.842 14.424 128.482 14.424C129.122 14.424 129.613 14.5947 129.954 14.936C130.296 15.2773 130.466 15.7787 130.466 16.44V19.352H133.858C134.37 19.352 134.765 19.48 135.042 19.736C135.32 19.992 135.458 20.3653 135.458 20.856C135.458 21.3253 135.32 21.6987 135.042 21.976C134.765 22.232 134.37 22.36 133.858 22.36H130.466V28.952C130.466 29.976 130.69 30.744 131.138 31.256C131.586 31.768 132.312 32.024 133.314 32.024C133.677 32.024 133.997 31.992 134.274 31.928C134.552 31.864 134.797 31.8213 135.01 31.8C135.266 31.7787 135.48 31.864 135.65 32.056C135.821 32.2267 135.906 32.5893 135.906 33.144C135.906 33.5707 135.832 33.9547 135.682 34.296C135.554 34.616 135.309 34.84 134.946 34.968C134.669 35.0533 134.306 35.128 133.858 35.192C133.41 35.2773 133.016 35.32 132.674 35.32ZM143.889 35.32C142.503 35.32 141.34 35.0853 140.401 34.616C139.484 34.1467 138.801 33.464 138.353 32.568C137.905 31.6507 137.681 30.52 137.681 29.176V22.36H136.017C135.505 22.36 135.111 22.232 134.833 21.976C134.556 21.6987 134.417 21.3253 134.417 20.856C134.417 20.3653 134.556 19.992 134.833 19.736C135.111 19.48 135.505 19.352 136.017 19.352H137.681V16.44C137.681 15.7787 137.852 15.2773 138.193 14.936C138.556 14.5947 139.057 14.424 139.697 14.424C140.337 14.424 140.828 14.5947 141.169 14.936C141.511 15.2773 141.681 15.7787 141.681 16.44V19.352H145.073C145.585 19.352 145.98 19.48 146.257 19.736C146.535 19.992 146.673 20.3653 146.673 20.856C146.673 21.3253 146.535 21.6987 146.257 21.976C145.98 22.232 145.585 22.36 145.073 22.36H141.681V28.952C141.681 29.976 141.905 30.744 142.353 31.256C142.801 31.768 143.527 32.024 144.529 32.024C144.892 32.024 145.212 31.992 145.489 31.928C145.767 31.864 146.012 31.8213 146.225 31.8C146.481 31.7787 146.695 31.864 146.865 32.056C147.036 32.2267 147.121 32.5893 147.121 33.144C147.121 33.5707 147.047 33.9547 146.897 34.296C146.769 34.616 146.524 34.84 146.161 34.968C145.884 35.0533 145.521 35.128 145.073 35.192C144.625 35.2773 144.231 35.32 143.889 35.32ZM156.398 35.32C154.628 35.32 153.102 34.9893 151.822 34.328C150.542 33.6667 149.55 32.728 148.846 31.512C148.164 30.296 147.822 28.856 147.822 27.192C147.822 25.5707 148.153 24.152 148.814 22.936C149.497 21.72 150.425 20.7707 151.598 20.088C152.793 19.384 154.148 19.032 155.662 19.032C156.772 19.032 157.764 19.2133 158.638 19.576C159.534 19.9387 160.292 20.4613 160.91 21.144C161.55 21.8267 162.03 22.6587 162.35 23.64C162.692 24.6 162.862 25.688 162.862 26.904C162.862 27.288 162.724 27.5867 162.446 27.8C162.19 27.992 161.817 28.088 161.326 28.088H151.054V25.784H160.046L159.534 26.264C159.534 25.2827 159.385 24.4613 159.086 23.8C158.809 23.1387 158.393 22.6373 157.838 22.296C157.305 21.9333 156.633 21.752 155.822 21.752C154.926 21.752 154.158 21.9653 153.518 22.392C152.9 22.7973 152.42 23.384 152.078 24.152C151.758 24.8987 151.598 25.7947 151.598 26.84V27.064C151.598 28.8133 152.004 30.1253 152.814 31C153.646 31.8533 154.862 32.28 156.462 32.28C157.017 32.28 157.636 32.216 158.318 32.088C159.022 31.9387 159.684 31.6933 160.302 31.352C160.75 31.096 161.145 30.9893 161.486 31.032C161.828 31.0533 162.094 31.1707 162.286 31.384C162.5 31.5973 162.628 31.864 162.67 32.184C162.713 32.4827 162.649 32.792 162.478 33.112C162.329 33.432 162.062 33.7093 161.678 33.944C160.932 34.4133 160.068 34.7653 159.086 35C158.126 35.2133 157.23 35.32 156.398 35.32ZM167.918 35.256C167.257 35.256 166.745 35.0853 166.382 34.744C166.041 34.3813 165.87 33.8693 165.87 33.208V21.112C165.87 20.4507 166.041 19.9493 166.382 19.608C166.723 19.2667 167.203 19.096 167.822 19.096C168.441 19.096 168.921 19.2667 169.262 19.608C169.603 19.9493 169.774 20.4507 169.774 21.112V23.128H169.454C169.753 21.848 170.339 20.8773 171.214 20.216C172.089 19.5547 173.251 19.16 174.702 19.032C175.15 18.9893 175.502 19.1067 175.758 19.384C176.035 19.64 176.195 20.0453 176.238 20.6C176.281 21.1333 176.153 21.5707 175.854 21.912C175.577 22.232 175.15 22.424 174.574 22.488L173.87 22.552C172.569 22.68 171.587 23.0853 170.926 23.768C170.265 24.4293 169.934 25.368 169.934 26.584V33.208C169.934 33.8693 169.763 34.3813 169.422 34.744C169.081 35.0853 168.579 35.256 167.918 35.256Z" fill="black"/>
</svg>
