<svg width="270" height="100" viewBox="0 0 270 100" fill="none" xmlns="http://www.w3.org/2000/svg">
<rect width="270" height="100" rx="23.8889" fill="white"/>
<g clip-path="url(#clip0_187_143)">
<path d="M87.2157 57.782C87.6722 58.9935 88.3043 60.0293 89.112 60.8894C89.9197 61.7497 90.8767 62.4081 91.9828 62.8646C93.089 63.3211 94.2917 63.5492 95.5911 63.5492C96.8554 63.5492 98.0405 63.3122 99.1467 62.8381C100.253 62.364 101.219 61.697 102.044 60.8368C102.869 59.9765 103.51 58.9495 103.967 57.7557C104.423 56.5618 104.651 55.2277 104.651 53.7529V31H110.182V67.868H104.704V64.4445C103.475 65.7436 102.026 66.7443 100.358 67.4467C98.69 68.1489 96.8904 68.5 94.959 68.5C92.9924 68.5 91.1576 68.1576 89.4543 67.4729C87.7512 66.7883 86.2762 65.814 85.0297 64.5499C83.7831 63.2858 82.7997 61.7673 82.0799 59.9941C81.3599 58.2209 81 56.2459 81 54.0688V31H86.5309V53.7529C86.5309 55.2277 86.7591 56.5706 87.2157 57.782Z" fill="#010202"/>
<path d="M119.716 31V44.4305C120.945 43.2015 122.367 42.2273 123.983 41.5074C125.598 40.7875 127.354 40.4276 129.25 40.4276C131.217 40.4276 133.06 40.7963 134.781 41.5336C136.502 42.271 137.994 43.2717 139.258 44.5358C140.523 45.7999 141.524 47.2921 142.261 49.0126C142.998 50.7332 143.367 52.559 143.367 54.4902C143.367 56.4213 142.998 58.2384 142.261 59.9413C141.524 61.6443 140.523 63.1278 139.258 64.3917C137.994 65.6558 136.502 66.6566 134.781 67.3939C133.06 68.1313 131.217 68.4999 129.25 68.4999C127.354 68.4999 125.589 68.14 123.956 67.4201C122.323 66.7004 120.892 65.726 119.663 64.4971V67.8679H114.396V31H119.716ZM120.322 58.1243C120.796 59.248 121.454 60.2311 122.297 61.0738C123.14 61.9165 124.123 62.5837 125.247 63.0753C126.371 63.5668 127.582 63.8126 128.881 63.8126C130.146 63.8126 131.34 63.5668 132.463 63.0753C133.587 62.5837 134.561 61.9166 135.387 61.0738C136.212 60.2312 136.871 59.248 137.362 58.1243C137.854 57.0007 138.1 55.7894 138.1 54.4902C138.1 53.191 137.854 51.9709 137.362 50.8297C136.871 49.6885 136.212 48.6967 135.387 47.8539C134.562 47.0114 133.587 46.3529 132.463 45.8789C131.339 45.405 130.146 45.1678 128.881 45.1678C127.617 45.1678 126.423 45.4049 125.3 45.8789C124.176 46.353 123.193 47.0114 122.35 47.8539C121.507 48.6967 120.84 49.6885 120.348 50.8297C119.856 51.9709 119.611 53.191 119.611 54.4902C119.611 55.7894 119.848 57.0007 120.322 58.1243Z" fill="#010202"/>
<path d="M146.369 49.0654C147.071 47.38 148.037 45.8965 149.266 44.6149C150.495 43.3334 151.953 42.3239 153.638 41.5865C155.324 40.8492 157.15 40.4806 159.116 40.4806C161.048 40.4806 162.839 40.8317 164.489 41.5339C166.14 42.2361 167.562 43.2105 168.756 44.457C169.95 45.7034 170.881 47.1782 171.548 48.8811C172.215 50.5841 172.549 52.4363 172.549 54.4378V56.1759H150.688C150.864 57.2644 151.215 58.2738 151.742 59.2042C152.269 60.1346 152.927 60.9422 153.717 61.6269C154.507 62.3117 155.403 62.8472 156.404 63.2333C157.405 63.6195 158.467 63.8128 159.591 63.8128C162.786 63.8128 165.367 62.496 167.334 59.8625L171.179 62.7066C169.845 64.4973 168.194 65.9019 166.228 66.9201C164.261 67.9383 162.049 68.4474 159.591 68.4474C157.589 68.4474 155.719 68.0962 153.981 67.394C152.242 66.6919 150.733 65.7086 149.451 64.4445C148.169 63.1804 147.159 61.697 146.422 59.9941C145.685 58.2912 145.316 56.4389 145.316 54.4375C145.316 52.5416 145.667 50.7508 146.369 49.0654ZM153.77 46.9849C152.277 48.2314 151.285 49.8905 150.794 51.9621H167.176C166.719 49.8905 165.745 48.2314 164.252 46.9849C162.76 45.7385 161.013 45.1153 159.011 45.1153C157.009 45.1153 155.262 45.7385 153.77 46.9849Z" fill="#010202"/>
<path d="M182.504 47.5906C181.38 48.8195 180.818 50.4873 180.818 52.5941V67.8681H175.498V41.0071H180.766V44.3252C181.433 43.2367 182.302 42.3764 183.373 41.7444C184.444 41.1123 185.717 40.7963 187.192 40.7963H189.036V45.7471H186.823C185.067 45.7472 183.628 46.3616 182.504 47.5906Z" fill="#010202"/>
</g>
<defs>
<clipPath id="clip0_187_143">
<rect width="108.036" height="37.5" fill="white" transform="translate(81 31)"/>
</clipPath>
</defs>
</svg>
