<svg width="45" height="44" viewBox="0 0 45 44" fill="none" xmlns="http://www.w3.org/2000/svg">
<rect x="0.5" width="44" height="44" rx="20" fill="#9BFA19"/>
<path d="M17.3269 16.1749C16.9658 16.7535 16.3613 17.134 15.686 17.2299C15.3066 17.2839 14.9285 17.3422 14.552 17.405C13.4991 17.5804 12.75 18.5066 12.75 19.574V28C12.75 29.2426 13.7574 30.25 15 30.25H30C31.2426 30.25 32.25 29.2426 32.25 28V19.574C32.25 18.5066 31.5009 17.5804 30.448 17.405C30.0715 17.3422 29.6934 17.2839 29.314 17.2299C28.6387 17.134 28.0342 16.7535 27.6731 16.1749L26.8519 14.8589C26.4734 14.2524 25.8294 13.8584 25.1155 13.82C24.2496 13.7735 23.3775 13.75 22.5 13.75C21.6225 13.75 20.7504 13.7735 19.8845 13.82C19.1706 13.8584 18.5266 14.2524 18.1481 14.8589L17.3269 16.1749Z" stroke="#0F172A" stroke-width="2" stroke-linecap="round" stroke-linejoin="round"/>
<path d="M27 22.75C27 25.2353 24.9853 27.25 22.5 27.25C20.0147 27.25 18 25.2353 18 22.75C18 20.2647 20.0147 18.25 22.5 18.25C24.9853 18.25 27 20.2647 27 22.75Z" stroke="#0F172A" stroke-width="2" stroke-linecap="round" stroke-linejoin="round"/>
<path d="M29.25 20.5H29.2575V20.5075H29.25V20.5Z" stroke="#0F172A" stroke-width="2" stroke-linecap="round" stroke-linejoin="round"/>
</svg>
