<svg width="186" height="24" viewBox="0 0 186 24" fill="none" xmlns="http://www.w3.org/2000/svg">
<path d="M17.9815 18.7248C16.6121 16.9175 14.4424 15.75 12 15.75C9.55761 15.75 7.38789 16.9175 6.01846 18.7248M17.9815 18.7248C19.8335 17.0763 21 14.6744 21 12C21 7.02944 16.9706 3 12 3C7.02944 3 3 7.02944 3 12C3 14.6744 4.1665 17.0763 6.01846 18.7248M17.9815 18.7248C16.3915 20.1401 14.2962 21 12 21C9.70383 21 7.60851 20.1401 6.01846 18.7248M15 9.75C15 11.4069 13.6569 12.75 12 12.75C10.3431 12.75 9 11.4069 9 9.75C9 8.09315 10.3431 6.75 12 6.75C13.6569 6.75 15 8.09315 15 9.75Z" stroke="black" stroke-width="2" stroke-linecap="round" stroke-linejoin="round"/>
<path d="M49.512 17.144C49.224 17.144 48.99 17.078 48.81 16.946C48.642 16.814 48.54 16.64 48.504 16.424C48.468 16.196 48.51 15.944 48.63 15.668L53.382 5.138C53.538 4.79 53.724 4.544 53.94 4.4C54.168 4.244 54.426 4.166 54.714 4.166C54.99 4.166 55.236 4.244 55.452 4.4C55.68 4.544 55.872 4.79 56.028 5.138L60.798 15.668C60.93 15.944 60.978 16.196 60.942 16.424C60.906 16.652 60.804 16.832 60.636 16.964C60.468 17.084 60.246 17.144 59.97 17.144C59.634 17.144 59.37 17.066 59.178 16.91C58.998 16.742 58.836 16.49 58.692 16.154L57.522 13.436L58.494 14.066H50.898L51.87 13.436L50.718 16.154C50.562 16.502 50.4 16.754 50.232 16.91C50.064 17.066 49.824 17.144 49.512 17.144ZM54.678 6.812L52.158 12.806L51.69 12.23H57.702L57.252 12.806L54.714 6.812H54.678ZM63.6085 17.144C63.2485 17.144 62.9725 17.048 62.7805 16.856C62.5885 16.652 62.4925 16.364 62.4925 15.992V5.3C62.4925 4.928 62.5885 4.646 62.7805 4.454C62.9725 4.262 63.2485 4.166 63.6085 4.166C63.9685 4.166 64.2445 4.262 64.4365 4.454C64.6405 4.646 64.7425 4.928 64.7425 5.3V11.942H64.7785L67.7485 8.81C67.9885 8.57 68.1985 8.384 68.3785 8.252C68.5585 8.12 68.8045 8.054 69.1165 8.054C69.4285 8.054 69.6625 8.138 69.8185 8.306C69.9865 8.462 70.0705 8.654 70.0705 8.882C70.0705 9.11 69.9625 9.338 69.7465 9.566L66.6145 12.878V11.942L70.0525 15.65C70.2685 15.878 70.3645 16.112 70.3405 16.352C70.3285 16.58 70.2325 16.772 70.0525 16.928C69.8725 17.072 69.6445 17.144 69.3685 17.144C69.0325 17.144 68.7625 17.078 68.5585 16.946C68.3665 16.814 68.1505 16.616 67.9105 16.352L64.7785 13.076H64.7425V15.992C64.7425 16.76 64.3645 17.144 63.6085 17.144ZM75.2569 17.18C74.5249 17.18 73.9189 17.048 73.4389 16.784C72.9589 16.508 72.5989 16.1 72.3589 15.56C72.1309 15.02 72.0169 14.348 72.0169 13.544V9.188C72.0169 8.804 72.1129 8.522 72.3049 8.342C72.4969 8.15 72.7729 8.054 73.1329 8.054C73.4929 8.054 73.7689 8.15 73.9609 8.342C74.1649 8.522 74.2669 8.804 74.2669 9.188V13.58C74.2669 14.204 74.3929 14.666 74.6449 14.966C74.8969 15.266 75.2989 15.416 75.8509 15.416C76.4509 15.416 76.9429 15.212 77.3269 14.804C77.7109 14.384 77.9029 13.832 77.9029 13.148V9.188C77.9029 8.804 77.9989 8.522 78.1909 8.342C78.3829 8.15 78.6589 8.054 79.0189 8.054C79.3789 8.054 79.6549 8.15 79.8469 8.342C80.0509 8.522 80.1529 8.804 80.1529 9.188V15.992C80.1529 16.76 79.7869 17.144 79.0549 17.144C78.7069 17.144 78.4369 17.048 78.2449 16.856C78.0529 16.652 77.9569 16.364 77.9569 15.992V14.624L78.2089 15.164C77.9569 15.812 77.5729 16.31 77.0569 16.658C76.5529 17.006 75.9529 17.18 75.2569 17.18ZM83.5388 17.144C83.1788 17.144 82.9028 17.048 82.7108 16.856C82.5188 16.652 82.4228 16.364 82.4228 15.992V9.188C82.4228 8.816 82.5188 8.534 82.7108 8.342C82.9028 8.15 83.1728 8.054 83.5208 8.054C83.8688 8.054 84.1388 8.15 84.3308 8.342C84.5228 8.534 84.6188 8.816 84.6188 9.188V10.412L84.4208 9.962C84.6848 9.326 85.0928 8.846 85.6448 8.522C86.2088 8.186 86.8448 8.018 87.5528 8.018C88.2608 8.018 88.8428 8.15 89.2988 8.414C89.7548 8.678 90.0968 9.08 90.3248 9.62C90.5528 10.148 90.6668 10.82 90.6668 11.636V15.992C90.6668 16.364 90.5708 16.652 90.3788 16.856C90.1868 17.048 89.9108 17.144 89.5508 17.144C89.1908 17.144 88.9088 17.048 88.7048 16.856C88.5128 16.652 88.4168 16.364 88.4168 15.992V11.744C88.4168 11.06 88.2848 10.562 88.0208 10.25C87.7688 9.938 87.3728 9.782 86.8328 9.782C86.1728 9.782 85.6448 9.992 85.2488 10.412C84.8648 10.82 84.6728 11.366 84.6728 12.05V15.992C84.6728 16.76 84.2948 17.144 83.5388 17.144Z" fill="black"/>
</svg>
