<svg width="186" height="24" viewBox="0 0 186 24" fill="none" xmlns="http://www.w3.org/2000/svg">
<path d="M15.75 9V5.25C15.75 4.00736 14.7426 3 13.5 3L7.5 3C6.25736 3 5.25 4.00736 5.25 5.25L5.25 18.75C5.25 19.9926 6.25736 21 7.5 21H13.5C14.7426 21 15.75 19.9926 15.75 18.75V15M18.75 15L21.75 12M21.75 12L18.75 9M21.75 12L9 12" stroke="#F00101" stroke-width="2" stroke-linecap="round" stroke-linejoin="round"/>
<path d="M50.538 18.144C50.166 18.144 49.878 18.042 49.674 17.838C49.482 17.622 49.386 17.328 49.386 16.956V6.336C49.386 5.952 49.482 5.664 49.674 5.472C49.878 5.268 50.166 5.166 50.538 5.166C50.91 5.166 51.192 5.268 51.384 5.472C51.588 5.664 51.69 5.952 51.69 6.336V10.926H51.726L56.892 5.742C57.084 5.55 57.276 5.406 57.468 5.31C57.66 5.214 57.876 5.166 58.116 5.166C58.464 5.166 58.71 5.256 58.854 5.436C59.01 5.616 59.07 5.826 59.034 6.066C59.01 6.306 58.896 6.528 58.692 6.732L53.436 11.934L53.454 10.89L58.944 16.47C59.196 16.71 59.328 16.962 59.34 17.226C59.352 17.49 59.268 17.712 59.088 17.892C58.92 18.06 58.668 18.144 58.332 18.144C58.044 18.144 57.81 18.084 57.63 17.964C57.462 17.844 57.264 17.67 57.036 17.442L51.726 12.132H51.69V16.956C51.69 17.328 51.594 17.622 51.402 17.838C51.21 18.042 50.922 18.144 50.538 18.144ZM65.1782 18.18C64.1822 18.18 63.3242 17.994 62.6042 17.622C61.8842 17.25 61.3262 16.722 60.9302 16.038C60.5462 15.354 60.3542 14.544 60.3542 13.608C60.3542 12.696 60.5402 11.898 60.9122 11.214C61.2962 10.53 61.8182 9.996 62.4782 9.612C63.1502 9.216 63.9122 9.018 64.7642 9.018C65.3882 9.018 65.9462 9.12 66.4382 9.324C66.9422 9.528 67.3682 9.822 67.7162 10.206C68.0762 10.59 68.3462 11.058 68.5262 11.61C68.7182 12.15 68.8142 12.762 68.8142 13.446C68.8142 13.662 68.7362 13.83 68.5802 13.95C68.4362 14.058 68.2262 14.112 67.9502 14.112H62.1722V12.816H67.2302L66.9422 13.086C66.9422 12.534 66.8582 12.072 66.6902 11.7C66.5342 11.328 66.3002 11.046 65.9882 10.854C65.6882 10.65 65.3102 10.548 64.8542 10.548C64.3502 10.548 63.9182 10.668 63.5582 10.908C63.2102 11.136 62.9402 11.466 62.7482 11.898C62.5682 12.318 62.4782 12.822 62.4782 13.41V13.536C62.4782 14.52 62.7062 15.258 63.1622 15.75C63.6302 16.23 64.3142 16.47 65.2142 16.47C65.5262 16.47 65.8742 16.434 66.2582 16.362C66.6542 16.278 67.0262 16.14 67.3742 15.948C67.6262 15.804 67.8482 15.744 68.0402 15.768C68.2322 15.78 68.3822 15.846 68.4902 15.966C68.6102 16.086 68.6822 16.236 68.7062 16.416C68.7302 16.584 68.6942 16.758 68.5982 16.938C68.5142 17.118 68.3642 17.274 68.1482 17.406C67.7282 17.67 67.2422 17.868 66.6902 18C66.1502 18.12 65.6462 18.18 65.1782 18.18ZM73.53 18.18C72.534 18.18 71.784 17.898 71.28 17.334C70.776 16.758 70.524 15.918 70.524 14.814V6.3C70.524 5.928 70.62 5.646 70.812 5.454C71.004 5.262 71.28 5.166 71.64 5.166C72 5.166 72.276 5.262 72.468 5.454C72.672 5.646 72.774 5.928 72.774 6.3V14.706C72.774 15.258 72.888 15.666 73.116 15.93C73.356 16.194 73.692 16.326 74.124 16.326C74.22 16.326 74.31 16.326 74.394 16.326C74.478 16.314 74.562 16.302 74.646 16.29C74.814 16.266 74.928 16.314 74.988 16.434C75.048 16.542 75.078 16.77 75.078 17.118C75.078 17.418 75.018 17.652 74.898 17.82C74.778 17.988 74.58 18.09 74.304 18.126C74.184 18.138 74.058 18.15 73.926 18.162C73.794 18.174 73.662 18.18 73.53 18.18ZM79.3861 18.18C78.6541 18.18 78.0481 18.048 77.5681 17.784C77.0881 17.508 76.7281 17.1 76.4881 16.56C76.2601 16.02 76.1461 15.348 76.1461 14.544V10.188C76.1461 9.804 76.2421 9.522 76.4341 9.342C76.6261 9.15 76.9021 9.054 77.2621 9.054C77.6221 9.054 77.8981 9.15 78.0901 9.342C78.2941 9.522 78.3961 9.804 78.3961 10.188V14.58C78.3961 15.204 78.5221 15.666 78.7741 15.966C79.0261 16.266 79.4281 16.416 79.9801 16.416C80.5801 16.416 81.0721 16.212 81.4561 15.804C81.8401 15.384 82.0321 14.832 82.0321 14.148V10.188C82.0321 9.804 82.1281 9.522 82.3201 9.342C82.5121 9.15 82.7881 9.054 83.1481 9.054C83.5081 9.054 83.7841 9.15 83.9761 9.342C84.1801 9.522 84.2821 9.804 84.2821 10.188V16.992C84.2821 17.76 83.9161 18.144 83.1841 18.144C82.8361 18.144 82.5661 18.048 82.3741 17.856C82.1821 17.652 82.0861 17.364 82.0861 16.992V15.624L82.3381 16.164C82.0861 16.812 81.7021 17.31 81.1861 17.658C80.6821 18.006 80.0821 18.18 79.3861 18.18ZM89.4499 18.18C88.8139 18.18 88.2439 18.06 87.7399 17.82C87.2479 17.568 86.8579 17.232 86.5699 16.812C86.2939 16.392 86.1559 15.918 86.1559 15.39C86.1559 14.742 86.3239 14.232 86.6599 13.86C86.9959 13.476 87.5419 13.2 88.2979 13.032C89.0539 12.864 90.0679 12.78 91.3399 12.78H92.2399V14.076H91.3579C90.6139 14.076 90.0199 14.112 89.5759 14.184C89.1319 14.256 88.8139 14.382 88.6219 14.562C88.4419 14.73 88.3519 14.97 88.3519 15.282C88.3519 15.678 88.4899 16.002 88.7659 16.254C89.0419 16.506 89.4259 16.632 89.9179 16.632C90.3139 16.632 90.6619 16.542 90.9619 16.362C91.2739 16.17 91.5199 15.912 91.6999 15.588C91.8799 15.264 91.9699 14.892 91.9699 14.472V12.402C91.9699 11.802 91.8379 11.37 91.5739 11.106C91.3099 10.842 90.8659 10.71 90.2419 10.71C89.8939 10.71 89.5159 10.752 89.1079 10.836C88.7119 10.92 88.2919 11.064 87.8479 11.268C87.6199 11.376 87.4159 11.406 87.2359 11.358C87.0679 11.31 86.9359 11.214 86.8399 11.07C86.7439 10.914 86.6959 10.746 86.6959 10.566C86.6959 10.386 86.7439 10.212 86.8399 10.044C86.9359 9.864 87.0979 9.732 87.3259 9.648C87.8779 9.42 88.4059 9.258 88.9099 9.162C89.4259 9.066 89.8939 9.018 90.3139 9.018C91.1779 9.018 91.8859 9.15 92.4379 9.414C93.0019 9.678 93.4219 10.08 93.6979 10.62C93.9739 11.148 94.1119 11.832 94.1119 12.672V16.992C94.1119 17.364 94.0219 17.652 93.8419 17.856C93.6619 18.048 93.4039 18.144 93.0679 18.144C92.7319 18.144 92.4679 18.048 92.2759 17.856C92.0959 17.652 92.0059 17.364 92.0059 16.992V16.128H92.1499C92.0659 16.548 91.8979 16.914 91.6459 17.226C91.4059 17.526 91.0999 17.76 90.7279 17.928C90.3559 18.096 89.9299 18.18 89.4499 18.18ZM97.4757 18.144C97.1037 18.144 96.8157 18.048 96.6117 17.856C96.4197 17.652 96.3237 17.364 96.3237 16.992V10.188C96.3237 9.816 96.4197 9.534 96.6117 9.342C96.8037 9.15 97.0737 9.054 97.4217 9.054C97.7697 9.054 98.0397 9.15 98.2317 9.342C98.4237 9.534 98.5197 9.816 98.5197 10.188V11.322H98.3397C98.5077 10.602 98.8377 10.056 99.3297 9.684C99.8217 9.312 100.476 9.09 101.292 9.018C101.544 8.994 101.742 9.06 101.886 9.216C102.042 9.36 102.132 9.588 102.156 9.9C102.18 10.2 102.108 10.446 101.94 10.638C101.784 10.818 101.544 10.926 101.22 10.962L100.824 10.998C100.092 11.07 99.5397 11.298 99.1677 11.682C98.7957 12.054 98.6097 12.582 98.6097 13.266V16.992C98.6097 17.364 98.5137 17.652 98.3217 17.856C98.1297 18.048 97.8477 18.144 97.4757 18.144Z" fill="#F00101"/>
</svg>
