<svg width="44" height="44" viewBox="0 0 44 44" fill="none" xmlns="http://www.w3.org/2000/svg">
<rect width="44" height="44" rx="20" fill="#9BFA19"/>
<path d="M25.75 27.25V30.625C25.75 31.2463 25.2463 31.75 24.625 31.75H14.875C14.2537 31.75 13.75 31.2463 13.75 30.625V17.875C13.75 17.2537 14.2537 16.75 14.875 16.75H16.75C17.2611 16.75 17.7622 16.7926 18.25 16.8744M25.75 27.25H29.125C29.7463 27.25 30.25 26.7463 30.25 26.125V21.25C30.25 16.7905 27.0066 13.0886 22.75 12.3744C22.2622 12.2926 21.7611 12.25 21.25 12.25H19.375C18.7537 12.25 18.25 12.7537 18.25 13.375V16.8744M25.75 27.25H19.375C18.7537 27.25 18.25 26.7463 18.25 26.125V16.8744M30.25 23.5V21.625C30.25 19.761 28.739 18.25 26.875 18.25H25.375C24.7537 18.25 24.25 17.7463 24.25 17.125V15.625C24.25 13.761 22.739 12.25 20.875 12.25H19.75" stroke="black" stroke-width="1.5" stroke-linecap="round" stroke-linejoin="round"/>
</svg>
