<svg width="14" height="18" viewBox="0 0 14 18" fill="none" xmlns="http://www.w3.org/2000/svg">
<path d="M9.8125 12.9375V15.4688C9.8125 15.9347 9.43474 16.3125 8.96875 16.3125H1.65625C1.19026 16.3125 0.8125 15.9347 0.8125 15.4688V5.90625C0.8125 5.44026 1.19026 5.0625 1.65625 5.0625H3.0625C3.4458 5.0625 3.82164 5.09445 4.1875 5.15583M9.8125 12.9375H12.3438C12.8097 12.9375 13.1875 12.5597 13.1875 12.0938V8.4375C13.1875 5.09288 10.7549 2.31642 7.5625 1.78083C7.19664 1.71945 6.8208 1.6875 6.4375 1.6875H5.03125C4.56526 1.6875 4.1875 2.06526 4.1875 2.53125V5.15583M9.8125 12.9375H5.03125C4.56526 12.9375 4.1875 12.5597 4.1875 12.0938V5.15583M13.1875 10.125V8.71875C13.1875 7.32078 12.0542 6.1875 10.6562 6.1875H9.53125C9.06526 6.1875 8.6875 5.80974 8.6875 5.34375V4.21875C8.6875 2.82078 7.55422 1.6875 6.15625 1.6875H5.3125" stroke="#01C77A" stroke-width="1.5" stroke-linecap="round" stroke-linejoin="round"/>
</svg>
