<svg width="20" height="22" viewBox="0 0 20 22" fill="none" xmlns="http://www.w3.org/2000/svg">
<path d="M12.7404 8L12.3942 17M7.60577 17L7.25962 8M17.2276 4.79057C17.5696 4.84221 17.9104 4.89747 18.25 4.95629M17.2276 4.79057L16.1598 18.6726C16.0696 19.8448 15.0921 20.75 13.9164 20.75H6.08357C4.90786 20.75 3.93037 19.8448 3.8402 18.6726L2.77235 4.79057M17.2276 4.79057C16.0812 4.61744 14.9215 4.48485 13.75 4.39432M1.75 4.95629C2.08957 4.89747 2.43037 4.84221 2.77235 4.79057M2.77235 4.79057C3.91878 4.61744 5.07849 4.48485 6.25 4.39432M13.75 4.39432V3.47819C13.75 2.29882 12.8393 1.31423 11.6606 1.27652C11.1092 1.25889 10.5556 1.25 10 1.25C9.44435 1.25 8.89078 1.25889 8.33942 1.27652C7.16065 1.31423 6.25 2.29882 6.25 3.47819V4.39432M13.75 4.39432C12.5126 4.2987 11.262 4.25 10 4.25C8.73803 4.25 7.48744 4.2987 6.25 4.39432" stroke="white" stroke-width="2" stroke-linecap="round" stroke-linejoin="round"/>
</svg>
