<svg width="43" height="42" viewBox="0 0 43 42" fill="none" xmlns="http://www.w3.org/2000/svg">
<path d="M42.865 21.5659L22.93 26.1759L28.975 29.7859C26.975 32.7109 23.92 34.1359 20.195 34.1359C13.195 34.1359 8.24 28.9859 8.24 20.9209C8.2233 19.2004 8.47637 17.488 8.99 15.8459C6.89935 13.1386 5.72591 9.83541 5.64 6.41589C2.14 10.0109 0 15.0459 0 20.9159C0 32.8709 8.755 41.2809 20.25 41.2809C26.05 41.2809 31.14 39.2809 34.72 35.5759L38.255 41.5009L42.865 21.5659Z" fill="#2753BD"/>
<path d="M20.195 7.71083C23.81 7.71083 26.82 9.05583 28.805 11.7758C29.1305 12.2203 29.543 12.5941 30.0173 12.8745C30.4917 13.1549 31.018 13.336 31.5644 13.407C32.1108 13.4779 32.6659 13.4372 33.1961 13.2872C33.7263 13.1372 34.2206 12.8812 34.6489 12.5345C35.0772 12.1879 35.4306 11.7579 35.6878 11.2706C35.945 10.7833 36.1006 10.2488 36.1451 9.69965C36.1896 9.15045 36.1221 8.59793 35.9468 8.07558C35.7714 7.55323 35.4918 7.07192 35.125 6.66083C31.53 2.69583 26.275 0.500823 20.25 0.500823C15.7814 0.443664 11.4165 1.84828 7.81996 4.50083C7.72351 5.08757 7.67502 5.68121 7.67496 6.27583C7.66896 8.82037 8.53348 11.2904 10.125 13.2758C12.2 9.73083 15.82 7.71083 20.195 7.71083Z" fill="#B0FB49"/>
</svg>
