<svg width="168" height="41" viewBox="0 0 168 41" fill="none" xmlns="http://www.w3.org/2000/svg">
<path d="M42.865 21.0659L22.93 25.6759L28.975 29.2859C26.975 32.2109 23.92 33.6359 20.195 33.6359C13.195 33.6359 8.24 28.4859 8.24 20.4209C8.2233 18.7004 8.47637 16.988 8.99 15.3459C6.89935 12.6386 5.72591 9.33541 5.64 5.91589C2.14 9.5109 0 14.5459 0 20.4159C0 32.3709 8.755 40.7809 20.25 40.7809C26.05 40.7809 31.14 38.7809 34.72 35.0759L38.255 41.0009L42.865 21.0659Z" fill="#2753BD"/>
<path d="M20.195 7.21083C23.81 7.21083 26.82 8.55583 28.805 11.2758C29.1306 11.7203 29.543 12.0941 30.0174 12.3745C30.4917 12.6549 31.018 12.836 31.5644 12.907C32.1108 12.9779 32.666 12.9372 33.1962 12.7872C33.7264 12.6372 34.2206 12.3812 34.6489 12.0345C35.0772 11.6879 35.4306 11.2579 35.6878 10.7706C35.945 10.2833 36.1006 9.74885 36.1451 9.19965C36.1896 8.65045 36.1222 8.09793 35.9468 7.57558C35.7715 7.05323 35.4919 6.57192 35.125 6.16083C31.53 2.19583 26.275 0.000823401 20.25 0.000823401C15.7814 -0.0563356 11.4166 1.34828 7.81999 4.00083C7.72354 4.58757 7.67505 5.18121 7.67499 5.77583C7.669 8.32037 8.53351 10.7904 10.125 12.7758C12.2 9.23083 15.82 7.21083 20.195 7.21083Z" fill="#B0FB49"/>
<path d="M52.5384 20.266C52.5384 18.9449 52.8334 17.7648 53.4234 16.7258C54.0263 15.6741 54.8408 14.8596 55.8669 14.2824C56.9059 13.6923 58.0667 13.3973 59.3494 13.3973C60.8501 13.3973 62.1648 13.7821 63.2936 14.5517C64.4223 15.3213 65.2111 16.3859 65.6601 17.7456H62.5624C62.2546 17.1042 61.8185 16.6232 61.2541 16.3026C60.7026 15.9819 60.0612 15.8216 59.3301 15.8216C58.5477 15.8216 57.8486 16.0075 57.233 16.3795C56.6301 16.7387 56.1555 17.2517 55.8092 17.9187C55.4757 18.5857 55.309 19.3681 55.309 20.266C55.309 21.151 55.4757 21.9335 55.8092 22.6133C56.1555 23.2803 56.6301 23.7997 57.233 24.1717C57.8486 24.5309 58.5477 24.7104 59.3301 24.7104C60.0612 24.7104 60.7026 24.5501 61.2541 24.2294C61.8185 23.8959 62.2546 23.4085 62.5624 22.7672H65.6601C65.2111 24.1397 64.4223 25.2107 63.2936 25.9803C62.1776 26.7371 60.8629 27.1154 59.3494 27.1154C58.0667 27.1154 56.9059 26.8268 55.8669 26.2496C54.8408 25.6596 54.0263 24.8451 53.4234 23.8062C52.8334 22.7672 52.5384 21.5871 52.5384 20.266ZM67.2681 21.632C67.2681 20.5546 67.4798 19.599 67.903 18.7653C68.3391 17.9315 68.9228 17.2902 69.6539 16.8413C70.3978 16.3923 71.2251 16.1679 72.1358 16.1679C72.9311 16.1679 73.6237 16.3282 74.2138 16.6489C74.8166 16.9695 75.2976 17.3736 75.6568 17.861V16.341H78.3696V27H75.6568V25.4416C75.3104 25.9418 74.8294 26.3587 74.2138 26.6922C73.6109 27.0128 72.9119 27.1732 72.1166 27.1732C71.2187 27.1732 70.3978 26.9423 69.6539 26.4805C68.9228 26.0188 68.3391 25.371 67.903 24.5373C67.4798 23.6907 67.2681 22.7223 67.2681 21.632ZM75.6568 21.6705C75.6568 21.0164 75.5285 20.4584 75.272 19.9966C75.0154 19.5221 74.6691 19.1629 74.233 18.9192C73.7969 18.6627 73.3287 18.5344 72.8285 18.5344C72.3282 18.5344 71.8665 18.6563 71.4432 18.9C71.0199 19.1437 70.6736 19.5028 70.4042 19.9774C70.1477 20.4392 70.0194 20.9907 70.0194 21.632C70.0194 22.2734 70.1477 22.8377 70.4042 23.3252C70.6736 23.7997 71.0199 24.1653 71.4432 24.4218C71.8793 24.6784 72.3411 24.8066 72.8285 24.8066C73.3287 24.8066 73.7969 24.6848 74.233 24.4411C74.6691 24.1845 75.0154 23.8254 75.272 23.3636C75.5285 22.8891 75.6568 22.3247 75.6568 21.6705ZM83.694 17.9957C84.0403 17.4313 84.4892 16.9888 85.0408 16.6681C85.6051 16.3475 86.2465 16.1871 86.9648 16.1871V19.0154H86.2529C85.4063 19.0154 84.765 19.2142 84.3289 19.6118C83.9056 20.0095 83.694 20.7021 83.694 21.6898V27H81.0004V16.341H83.694V17.9957ZM98.6876 21.4396C98.6876 21.8244 98.662 22.1708 98.6107 22.4786H90.8185C90.8826 23.2482 91.152 23.8511 91.6266 24.2872C92.1011 24.7233 92.6848 24.9413 93.3774 24.9413C94.3779 24.9413 95.0898 24.5116 95.513 23.6522H98.4183C98.1104 24.6784 97.5204 25.5249 96.6482 26.1919C95.776 26.8461 94.705 27.1732 93.4351 27.1732C92.409 27.1732 91.4855 26.9487 90.6646 26.4998C89.8565 26.038 89.2216 25.3903 88.7598 24.5565C88.3109 23.7228 88.0864 22.7608 88.0864 21.6705C88.0864 20.5674 88.3109 19.599 88.7598 18.7653C89.2087 17.9315 89.8372 17.2902 90.6453 16.8413C91.4534 16.3923 92.3833 16.1679 93.4351 16.1679C94.4484 16.1679 95.3527 16.3859 96.148 16.822C96.956 17.2581 97.5781 17.8802 98.0142 18.6883C98.4632 19.4836 98.6876 20.4007 98.6876 21.4396ZM95.8978 20.67C95.885 19.9774 95.6349 19.4259 95.1475 19.0154C94.6601 18.5921 94.0636 18.3805 93.3582 18.3805C92.6912 18.3805 92.1268 18.5857 91.665 18.9962C91.2161 19.3938 90.9403 19.9517 90.8377 20.67H95.8978ZM110.562 21.4396C110.562 21.8244 110.537 22.1708 110.485 22.4786H102.693C102.757 23.2482 103.027 23.8511 103.501 24.2872C103.976 24.7233 104.559 24.9413 105.252 24.9413C106.253 24.9413 106.964 24.5116 107.388 23.6522H110.293C109.985 24.6784 109.395 25.5249 108.523 26.1919C107.651 26.8461 106.58 27.1732 105.31 27.1732C104.284 27.1732 103.36 26.9487 102.539 26.4998C101.731 26.038 101.096 25.3903 100.634 24.5565C100.186 23.7228 99.9611 22.7608 99.9611 21.6705C99.9611 20.5674 100.186 19.599 100.634 18.7653C101.083 17.9315 101.712 17.2902 102.52 16.8413C103.328 16.3923 104.258 16.1679 105.31 16.1679C106.323 16.1679 107.227 16.3859 108.023 16.822C108.831 17.2581 109.453 17.8802 109.889 18.6883C110.338 19.4836 110.562 20.4007 110.562 21.4396ZM107.773 20.67C107.76 19.9774 107.51 19.4259 107.022 19.0154C106.535 18.5921 105.938 18.3805 105.233 18.3805C104.566 18.3805 104.001 18.5857 103.54 18.9962C103.091 19.3938 102.815 19.9517 102.712 20.67H107.773ZM115.222 17.9957C115.568 17.4313 116.017 16.9888 116.569 16.6681C117.133 16.3475 117.775 16.1871 118.493 16.1871V19.0154H117.781C116.934 19.0154 116.293 19.2142 115.857 19.6118C115.434 20.0095 115.222 20.7021 115.222 21.6898V27H112.528V16.341H115.222V17.9957ZM128.6 13.5705V15.7446H123.001V19.1886H127.291V21.3242H123.001V27H120.307V13.5705H128.6ZM140.572 16.341V27H137.859V25.6532C137.513 26.115 137.058 26.4805 136.493 26.7499C135.942 27.0064 135.339 27.1347 134.685 27.1347C133.851 27.1347 133.113 26.9615 132.472 26.6152C131.831 26.2561 131.324 25.7366 130.952 25.0568C130.593 24.3641 130.413 23.5432 130.413 22.594V16.341H133.107V22.2092C133.107 23.0558 133.319 23.71 133.742 24.1717C134.165 24.6207 134.742 24.8451 135.473 24.8451C136.217 24.8451 136.801 24.6207 137.224 24.1717C137.648 23.71 137.859 23.0558 137.859 22.2092V16.341H140.572ZM149.136 16.1871C150.406 16.1871 151.432 16.5912 152.215 17.3992C152.997 18.1945 153.388 19.3104 153.388 20.747V27H150.695V21.1126C150.695 20.266 150.483 19.6183 150.06 19.1693C149.637 18.7076 149.059 18.4767 148.328 18.4767C147.584 18.4767 146.994 18.7076 146.558 19.1693C146.135 19.6183 145.923 20.266 145.923 21.1126V27H143.23V16.341H145.923V17.6686C146.282 17.2068 146.738 16.8477 147.289 16.5912C147.854 16.3218 148.469 16.1871 149.136 16.1871ZM155.257 21.632C155.257 20.5546 155.469 19.599 155.892 18.7653C156.328 17.9315 156.918 17.2902 157.662 16.8413C158.406 16.3923 159.234 16.1679 160.144 16.1679C160.837 16.1679 161.497 16.3218 162.126 16.6296C162.754 16.9247 163.255 17.3223 163.627 17.8225V12.7624H166.359V27H163.627V25.4223C163.293 25.9482 162.825 26.3715 162.222 26.6922C161.619 27.0128 160.92 27.1732 160.125 27.1732C159.227 27.1732 158.406 26.9423 157.662 26.4805C156.918 26.0188 156.328 25.371 155.892 24.5373C155.469 23.6907 155.257 22.7223 155.257 21.632ZM163.646 21.6705C163.646 21.0164 163.518 20.4584 163.261 19.9966C163.005 19.5221 162.658 19.1629 162.222 18.9192C161.786 18.6627 161.318 18.5344 160.818 18.5344C160.317 18.5344 159.856 18.6563 159.432 18.9C159.009 19.1437 158.663 19.5028 158.393 19.9774C158.137 20.4392 158.009 20.9907 158.009 21.632C158.009 22.2734 158.137 22.8377 158.393 23.3252C158.663 23.7997 159.009 24.1653 159.432 24.4218C159.868 24.6784 160.33 24.8066 160.818 24.8066C161.318 24.8066 161.786 24.6848 162.222 24.4411C162.658 24.1845 163.005 23.8254 163.261 23.3636C163.518 22.8891 163.646 22.3247 163.646 21.6705Z" fill="black"/>
</svg>
