<svg width="43" height="41" viewBox="0 0 43 41" fill="none" xmlns="http://www.w3.org/2000/svg">
<path d="M42.865 21.0659L22.93 25.6759L28.975 29.2859C26.975 32.2109 23.92 33.6359 20.195 33.6359C13.195 33.6359 8.24 28.4859 8.24 20.4209C8.2233 18.7004 8.47637 16.988 8.99 15.3459C6.89935 12.6386 5.72591 9.33541 5.64 5.91589C2.14 9.5109 0 14.5459 0 20.4159C0 32.3709 8.755 40.7809 20.25 40.7809C26.05 40.7809 31.14 38.7809 34.72 35.0759L38.255 41.0009L42.865 21.0659Z" fill="#2753BD"/>
<path d="M20.195 7.21083C23.81 7.21083 26.82 8.55583 28.805 11.2758C29.1306 11.7203 29.543 12.0941 30.0174 12.3745C30.4917 12.6549 31.018 12.836 31.5644 12.907C32.1108 12.9779 32.666 12.9372 33.1962 12.7872C33.7264 12.6372 34.2206 12.3812 34.6489 12.0345C35.0772 11.6879 35.4307 11.2579 35.6878 10.7706C35.945 10.2833 36.1006 9.74885 36.1451 9.19965C36.1896 8.65045 36.1222 8.09793 35.9468 7.57558C35.7715 7.05323 35.4919 6.57192 35.125 6.16083C31.53 2.19583 26.275 0.000823401 20.25 0.000823401C15.7814 -0.0563356 11.4166 1.34828 7.81999 4.00083C7.72354 4.58757 7.67505 5.18121 7.67499 5.77583C7.669 8.32037 8.53351 10.7904 10.125 12.7758C12.2 9.23083 15.82 7.21083 20.195 7.21083Z" fill="#B0FB49"/>
</svg>
