<svg width="70" height="70" viewBox="0 0 70 70" fill="none" xmlns="http://www.w3.org/2000/svg">
<rect width="70" height="70" rx="20" fill="#9BFA19"/>
<path d="M22.8125 43.4375C29.6465 43.4375 36.267 44.3515 42.5584 46.064C43.4672 46.3114 44.375 45.6357 44.375 44.6939V43.4375M24.6875 25.625V26.5625C24.6875 27.0803 24.2678 27.5 23.75 27.5H22.8125M22.8125 27.5V27.0313C22.8125 26.2546 23.4421 25.625 24.2188 25.625H45.3125M22.8125 27.5V38.75M45.3125 25.625V26.5625C45.3125 27.0803 45.7322 27.5 46.25 27.5H47.1875M45.3125 25.625H45.7812C46.5579 25.625 47.1875 26.2546 47.1875 27.0313V39.2188C47.1875 39.9954 46.5579 40.625 45.7812 40.625H45.3125M47.1875 38.75H46.25C45.7322 38.75 45.3125 39.1697 45.3125 39.6875V40.625M45.3125 40.625H24.6875M24.6875 40.625H24.2187C23.4421 40.625 22.8125 39.9954 22.8125 39.2188V38.75M24.6875 40.625V39.6875C24.6875 39.1697 24.2678 38.75 23.75 38.75H22.8125M38.75 33.125C38.75 35.1961 37.0711 36.875 35 36.875C32.9289 36.875 31.25 35.1961 31.25 33.125C31.25 31.0539 32.9289 29.375 35 29.375C37.0711 29.375 38.75 31.0539 38.75 33.125ZM42.5 33.125H42.5094V33.1344H42.5V33.125ZM27.5 33.125H27.5094V33.1344H27.5V33.125Z" stroke="#0F172A" stroke-width="2" stroke-linecap="round" stroke-linejoin="round"/>
</svg>
