<svg width="48" height="48" viewBox="0 0 48 48" fill="none" xmlns="http://www.w3.org/2000/svg">
<circle cx="24" cy="24" r="24" fill="#F5F5F5"/>
<path d="M39 24.36C39 23.3067 38.9076 22.3067 38.7493 21.3334H23.8365V27.3467H32.3751C31.9924 29.32 30.8706 30.9867 29.2078 32.12V36.12H34.3019C37.2844 33.3334 39 29.2267 39 24.36Z" fill="#4285F4"/>
<path d="M23.8366 40C28.1124 40 31.6888 38.56 34.3019 36.12L29.2078 32.12C27.7825 33.08 25.9745 33.6667 23.8366 33.6667C19.7059 33.6667 16.2086 30.8533 14.9549 27.0533H9.70245V31.1733C12.3023 36.4 17.6471 40 23.8366 40Z" fill="#34A853"/>
<path d="M14.9549 27.0533C14.6249 26.0933 14.4534 25.0667 14.4534 24C14.4534 22.9333 14.6381 21.9067 14.9549 20.9467V16.8267H9.70243C8.62026 18.9867 8 21.4133 8 24C8 26.5867 8.62026 29.0133 9.70243 31.1733L14.9549 27.0533Z" fill="#FBBC05"/>
<path d="M23.8366 14.3333C26.1724 14.3333 28.2576 15.1467 29.9072 16.7333L34.4206 12.1733C31.6888 9.58667 28.1124 8 23.8366 8C17.6471 8 12.3023 11.6 9.70245 16.8267L14.9549 20.9467C16.2086 17.1467 19.7059 14.3333 23.8366 14.3333Z" fill="#EA4335"/>
</svg>
