<svg width="60" height="60" viewBox="0 0 60 60" fill="none" xmlns="http://www.w3.org/2000/svg">
<rect width="60" height="60" rx="15" fill="#9BFA19"/>
<path d="M37.4769 38.406C35.7651 36.1468 33.053 34.6875 30 34.6875C26.947 34.6875 24.2349 36.1468 22.5231 38.406M37.4769 38.406C39.7919 36.3454 41.25 33.343 41.25 30C41.25 23.7868 36.2132 18.75 30 18.75C23.7868 18.75 18.75 23.7868 18.75 30C18.75 33.343 20.2081 36.3454 22.5231 38.406M37.4769 38.406C35.4894 40.1751 32.8702 41.25 30 41.25C27.1298 41.25 24.5106 40.1751 22.5231 38.406M33.75 27.1875C33.75 29.2586 32.0711 30.9375 30 30.9375C27.9289 30.9375 26.25 29.2586 26.25 27.1875C26.25 25.1164 27.9289 23.4375 30 23.4375C32.0711 23.4375 33.75 25.1164 33.75 27.1875Z" stroke="black" stroke-width="2" stroke-linecap="round" stroke-linejoin="round"/>
</svg>
